SplineFontDB: 3.2
FontName: Estedad-Light
FullName: Estedad Light
FamilyName: Estedad Light
Weight: Light
Copyright: Copyright (c) 2017-2019 by Amin Abedi (@aminabedi68)-www.opentypeshop.com and Copyright (c) 2019 by Amin Abedi (@aminabedi68)-www.fontamin.com,\nwith Reserved Font Name Estedad.\n\nThis Font Software is licensed under the SIL Open Font License, Version 1.1.
Version: 3.0
ItalicAngle: 0
UnderlinePosition: -650
UnderlineWidth: 112
Ascent: 1638
Descent: 410
InvalidEm: 0
sfntRevision: 0x00030000
UFOAscent: 1638
UFODescent: -410
LayerCount: 2
Layer: 0 0 "Back" 1
Layer: 1 0 "public.default" 0
StyleMap: 0x0000
FSType: 0
OS2Version: 0
OS2_WeightWidthSlopeOnly: 0
OS2_UseTypoMetrics: 0
CreationTime: 1571651431
ModificationTime: 1571651784
PfmFamily: 16
TTFWeight: 300
TTFWidth: 5
LineGap: 0
VLineGap: 0
OS2TypoAscent: 2200
OS2TypoAOffset: 0
OS2TypoDescent: -1200
OS2TypoDOffset: 0
OS2TypoLinegap: 0
OS2WinAscent: 2200
OS2WinAOffset: 0
OS2WinDescent: 1200
OS2WinDOffset: 0
HheadAscent: 2200
HheadAOffset: 0
HheadDescent: -1200
HheadDOffset: 0
OS2CapHeight: 1400
OS2XHeight: 1012
OS2Vendor: 'AA68'
Lookup: 1 1 0 "finaTerminalFormsinArabiclookup2" { "finaTerminalFormsinArabiclookup2 subtable"  } ['fina' ('arab' <'dflt' 'FAR ' 'KUR ' > ) ]
Lookup: 1 1 0 "mediMedialFormsinArabiclookup3" { "mediMedialFormsinArabiclookup3 subtable"  } ['medi' ('arab' <'dflt' 'FAR ' 'KUR ' > ) ]
Lookup: 1 1 0 "initInitialFormsinArabiclookup4" { "initInitialFormsinArabiclookup4 subtable"  } ['init' ('arab' <'dflt' 'FAR ' 'KUR ' > ) ]
Lookup: 4 1 1 "rligRequiredLigaturesinArabiclookup5" { "rligRequiredLigaturesinArabiclookup5 subtable"  } ['rlig' ('arab' <'dflt' 'FAR ' 'KUR ' > ) ]
Lookup: 4 0 1 "ccmpGlyphCompositionDecompositionlookup6" { "ccmpGlyphCompositionDecompositionlookup6 subtable"  } ['rlig' ('arab' <'dflt' 'FAR ' 'KUR ' > ) ]
Lookup: 2 0 0 "Multiplesubstitution0" { "Multiplesubstitution0 subtable"  } []
Lookup: 2 0 0 "Multiplesubstitution1" { "Multiplesubstitution1 subtable"  } []

StartChar: A
Encoding: 65 65 0
Width: 1315
VWidth: 0
GlyphClass: 2
Flags: HW
LayerCount: 2
Fore
SplineSet
386 535 m 257
 930 535 l 257
 658 1240 l 257
 386 535 l 257
180 0 m 257
 22 0 l 257
 581 1431 l 257
 736 1431 l 257
 1293 0 l 257
 1135 0 l 257
 977 412 l 257
 339 412 l 257
 180 0 l 257
EndSplineSet
EndChar

StartChar: AE
Encoding: 198 198 1
Width: 1831
VWidth: 0
GlyphClass: 2
Flags: HW
LayerCount: 2
Fore
SplineSet
845 1246 m 257
 799 1246 l 257
 437 482 l 257
 845 482 l 257
 845 1246 l 257
727 1431 m 257
 1767 1431 l 257
 1767 1304 l 257
 995 1304 l 257
 995 756 l 257
 1767 756 l 257
 1767 633 l 257
 995 633 l 257
 995 128 l 257
 1767 128 l 257
 1767 0 l 257
 845 0 l 257
 845 360 l 257
 376 360 l 257
 196 0 l 257
 32 0 l 257
 727 1431 l 257
EndSplineSet
EndChar

StartChar: B
Encoding: 66 66 8
Width: 1298
VWidth: 0
GlyphClass: 2
Flags: HW
LayerCount: 2
Fore
SplineSet
175 1431 m 257
 715 1431 l 258
 945 1431 1128 1245 1128 1026 c 256
 1128 900 1066 792 970 726 c 257
 1102 664 1191 534 1191 382 c 256
 1191 162 1007 0 778 0 c 258
 175 0 l 257
 175 1431 l 257
325 646 m 257
 325 128 l 257
 778 128 l 258
 921 128 1041 224 1041 382 c 256
 1041 541 918 646 778 646 c 258
 325 646 l 257
715 768 m 258
 858 768 978 868 978 1026 c 256
 978 1184 857 1304 715 1304 c 258
 325 1304 l 257
 325 768 l 257
 715 768 l 258
EndSplineSet
EndChar

StartChar: C
Encoding: 67 67 9
Width: 1317
VWidth: 0
GlyphClass: 2
Flags: HW
LayerCount: 2
Fore
SplineSet
1102 235 m 257
 1211 145 l 257
 1104 45 958 -20 775 -20 c 256
 328 -20 119 342 119 722 c 256
 119 1102 329 1451 775 1451 c 256
 957 1451 1103 1388 1211 1288 c 257
 1102 1197 l 257
 1021 1272 918 1324 775 1324 c 256
 439 1324 269 1066 269 722 c 256
 269 378 440 108 775 108 c 256
 916 108 1020 159 1102 235 c 257
EndSplineSet
EndChar

StartChar: D
Encoding: 68 68 11
Width: 1365
VWidth: 0
GlyphClass: 2
Flags: HW
LayerCount: 2
Fore
SplineSet
590 1431 m 258
 1042 1431 1247 1091 1247 705 c 256
 1247 319 1042 0 590 0 c 258
 175 0 l 257
 175 1431 l 257
 590 1431 l 258
590 1304 m 258
 325 1304 l 257
 325 128 l 257
 590 128 l 258
 932 128 1097 349 1097 705 c 256
 1097 1061 932 1304 590 1304 c 258
EndSplineSet
EndChar

StartChar: E
Encoding: 69 69 12
Width: 1106
VWidth: 0
GlyphClass: 2
Flags: HW
LayerCount: 2
Fore
SplineSet
1044 128 m 257
 1044 0 l 257
 175 0 l 257
 175 1431 l 257
 1044 1431 l 257
 1044 1304 l 257
 325 1304 l 257
 325 766 l 257
 1044 766 l 257
 1044 644 l 257
 325 644 l 257
 325 128 l 257
 1044 128 l 257
EndSplineSet
EndChar

StartChar: F
Encoding: 70 70 18
Width: 1098
VWidth: 0
GlyphClass: 2
Flags: HW
LayerCount: 2
Fore
SplineSet
325 0 m 257
 175 0 l 257
 175 1431 l 257
 1044 1431 l 257
 1044 1304 l 257
 325 1304 l 257
 325 766 l 257
 928 766 l 257
 928 644 l 257
 325 644 l 257
 325 0 l 257
EndSplineSet
EndChar

StartChar: G
Encoding: 71 71 19
Width: 1480
VWidth: 0
GlyphClass: 2
Flags: HW
LayerCount: 2
Fore
SplineSet
760 622 m 257
 759 743 l 257
 1325 746 l 257
 1325 446 l 258
 1325 202 1201 -20 801 -20 c 256
 354 -20 145 342 145 722 c 256
 145 1102 355 1451 801 1451 c 256
 982 1451 1152 1393 1264 1288 c 257
 1155 1197 l 257
 1078 1269 946 1319 801 1319 c 256
 465 1319 295 1066 295 722 c 256
 295 378 466 113 801 113 c 256
 1112 113 1175 245 1175 446 c 258
 1175 623 l 257
 760 622 l 257
EndSplineSet
EndChar

StartChar: GAFbar
Encoding: 1114112 -1 20
Width: 999
VWidth: 0
GlyphClass: 2
Flags: HW
LayerCount: 2
Fore
SplineSet
819 1893 m 257
 839 1801 l 257
 582 1748 320 1644 100 1504 c 257
 50 1584 l 257
 280 1732 552 1838 819 1893 c 257
EndSplineSet
EndChar

StartChar: H
Encoding: 72 72 21
Width: 1369
VWidth: 0
GlyphClass: 2
Flags: HW
LayerCount: 2
Fore
SplineSet
1044 1431 m 257
 1194 1431 l 257
 1194 0 l 257
 1044 0 l 257
 1044 666 l 257
 325 666 l 257
 325 0 l 257
 175 0 l 257
 175 1431 l 257
 325 1431 l 257
 325 788 l 257
 1044 788 l 257
 1044 1431 l 257
EndSplineSet
EndChar

StartChar: I
Encoding: 73 73 24
Width: 575
VWidth: 0
GlyphClass: 2
Flags: HW
LayerCount: 2
Fore
SplineSet
362 0 m 257
 212 0 l 257
 212 1431 l 257
 362 1431 l 257
 362 0 l 257
EndSplineSet
EndChar

StartChar: J
Encoding: 74 74 29
Width: 890
VWidth: 0
GlyphClass: 2
Flags: HW
LayerCount: 2
Fore
SplineSet
70 37 m 257
 149 150 l 257
 189 124 242 108 307 108 c 256
 457 108 566 168 566 382 c 258
 566 1431 l 257
 716 1431 l 257
 716 382 l 258
 716 104 528 -20 307 -20 c 256
 221 -20 142 -3 70 37 c 257
EndSplineSet
EndChar

StartChar: K
Encoding: 75 75 30
Width: 1253
VWidth: 0
GlyphClass: 2
Flags: HW
LayerCount: 2
Fore
SplineSet
1020 1431 m 257
 1216 1431 l 257
 567 734 l 257
 1213 0 l 257
 1024 0 l 257
 469 630 l 257
 325 476 l 257
 325 0 l 257
 175 0 l 257
 175 1431 l 257
 325 1431 l 257
 325 684 l 257
 1020 1431 l 257
EndSplineSet
EndChar

StartChar: L
Encoding: 76 76 31
Width: 1091
VWidth: 0
GlyphClass: 2
Flags: HW
LayerCount: 2
Fore
SplineSet
1044 128 m 257
 1044 0 l 257
 175 0 l 257
 175 1431 l 257
 325 1431 l 257
 325 128 l 257
 1044 128 l 257
EndSplineSet
EndChar

StartChar: M
Encoding: 77 77 32
Width: 1815
VWidth: 0
GlyphClass: 2
Flags: HW
LayerCount: 2
Fore
SplineSet
325 0 m 257
 175 0 l 257
 175 1431 l 257
 342 1431 l 257
 883 183 l 257
 1475 1431 l 257
 1640 1431 l 257
 1640 0 l 257
 1490 0 l 257
 1490 1143 l 257
 952 0 l 257
 810 0 l 257
 325 1123 l 257
 325 0 l 257
EndSplineSet
EndChar

StartChar: N
Encoding: 78 78 33
Width: 1416
VWidth: 0
GlyphClass: 2
Flags: HW
LayerCount: 2
Fore
SplineSet
1091 1431 m 257
 1241 1431 l 257
 1241 0 l 257
 1084 0 l 257
 325 1186 l 257
 325 0 l 257
 175 0 l 257
 175 1431 l 257
 331 1431 l 257
 1091 244 l 257
 1091 1431 l 257
EndSplineSet
EndChar

StartChar: O
Encoding: 79 79 35
Width: 1542
VWidth: 0
GlyphClass: 2
Flags: HW
LayerCount: 2
Fore
SplineSet
771 1451 m 256
 1217 1451 1427 1085 1427 705 c 256
 1427 325 1218 -20 771 -20 c 256
 324 -20 115 325 115 705 c 256
 115 1085 325 1451 771 1451 c 256
771 1324 m 256
 435 1324 265 1049 265 705 c 256
 265 361 436 108 771 108 c 256
 1106 108 1277 361 1277 705 c 256
 1277 1049 1107 1324 771 1324 c 256
EndSplineSet
EndChar

StartChar: OE
Encoding: 338 338 36
Width: 1697
VWidth: 0
GlyphClass: 2
Flags: HW
LayerCount: 2
Fore
SplineSet
692 137 m 257
 692 1294 l 257
 392 1273 238 1031 238 705 c 256
 238 379 392 158 692 137 c 257
1560 1431 m 257
 1560 1304 l 257
 842 1304 l 257
 842 766 l 257
 1560 766 l 257
 1560 644 l 257
 842 644 l 257
 842 128 l 257
 1560 128 l 257
 1560 0 l 257
 744 0 l 258
 297 0 88 325 88 705 c 256
 88 1085 298 1431 744 1431 c 258
 1560 1431 l 257
EndSplineSet
EndChar

StartChar: P
Encoding: 80 80 43
Width: 1224
VWidth: 0
GlyphClass: 2
Flags: HW
LayerCount: 2
Fore
SplineSet
325 0 m 257
 175 0 l 257
 175 1431 l 257
 715 1431 l 258
 945 1431 1128 1262 1128 1043 c 256
 1128 823 944 659 715 659 c 258
 325 659 l 257
 325 0 l 257
325 1304 m 257
 325 786 l 257
 715 786 l 258
 858 786 978 885 978 1043 c 256
 978 1201 857 1304 715 1304 c 258
 325 1304 l 257
EndSplineSet
EndChar

StartChar: R
Encoding: 82 82 45
Width: 1303
VWidth: 0
GlyphClass: 2
Flags: HW
LayerCount: 2
Fore
SplineSet
175 1431 m 257
 715 1431 l 258
 945 1431 1128 1261 1128 1042 c 256
 1128 904 1054 787 942 723 c 257
 1055 655 1128 537 1128 399 c 258
 1128 0 l 257
 978 0 l 257
 978 404 l 258
 978 558 855 663 715 663 c 258
 325 663 l 257
 325 0 l 257
 175 0 l 257
 175 1431 l 257
325 785 m 257
 715 785 l 258
 858 785 978 884 978 1042 c 256
 978 1200 857 1304 715 1304 c 258
 325 1304 l 257
 325 785 l 257
EndSplineSet
EndChar

StartChar: S
Encoding: 83 83 46
Width: 1171
VWidth: 0
GlyphClass: 2
Flags: HW
LayerCount: 2
Fore
SplineSet
88 405 m 257
 238 405 l 257
 238 213 404 108 600 108 c 256
 782 108 934 193 934 370 c 256
 934 520 790 595 572 654 c 256
 380 706 118 818 118 1067 c 256
 118 1317 334 1451 572 1451 c 256
 829 1451 1054 1293 1054 1026 c 257
 904 1026 l 257
 904 1213 761 1324 572 1324 c 256
 396 1324 268 1235 268 1064 c 256
 268 922 405 827 617 769 c 256
 814 716 1084 624 1084 366 c 256
 1084 100 832 -20 600 -20 c 256
 350 -20 88 121 88 405 c 257
EndSplineSet
EndChar

StartChar: T
Encoding: 84 84 47
Width: 1220
VWidth: 0
GlyphClass: 2
Flags: HW
LayerCount: 2
Fore
SplineSet
685 0 m 257
 535 0 l 257
 535 1304 l 257
 48 1304 l 257
 48 1431 l 257
 1172 1431 l 257
 1172 1304 l 257
 685 1304 l 257
 685 0 l 257
EndSplineSet
EndChar

StartChar: Thorn
Encoding: 222 222 54
Width: 1169
VWidth: 0
GlyphClass: 2
Flags: HW
LayerCount: 2
Fore
SplineSet
328 432 m 257
 590 432 l 258
 770 432 906 518 906 706 c 256
 906 894 770 981 590 981 c 258
 328 981 l 257
 328 432 l 257
328 0 m 257
 178 0 l 257
 178 1431 l 257
 328 1431 l 257
 328 1104 l 257
 590 1104 l 258
 832 1104 1056 975 1056 706 c 256
 1056 437 832 309 590 309 c 258
 328 309 l 257
 328 0 l 257
EndSplineSet
EndChar

StartChar: U
Encoding: 85 85 55
Width: 1358
VWidth: 0
GlyphClass: 2
Flags: HW
LayerCount: 2
Fore
SplineSet
1042 1431 m 257
 1192 1431 l 257
 1192 460 l 258
 1192 175 961 -20 679 -20 c 256
 397 -20 166 175 166 460 c 258
 166 1431 l 257
 316 1431 l 257
 316 454 l 258
 316 236 480 108 679 108 c 256
 878 108 1042 236 1042 454 c 258
 1042 1431 l 257
EndSplineSet
EndChar

StartChar: V
Encoding: 86 86 60
Width: 1315
VWidth: 0
GlyphClass: 2
Flags: HW
LayerCount: 2
Fore
SplineSet
1135 1431 m 257
 1293 1431 l 257
 728 0 l 257
 587 0 l 257
 22 1431 l 257
 180 1431 l 257
 657 208 l 257
 1135 1431 l 257
EndSplineSet
EndChar

StartChar: W
Encoding: 87 87 61
Width: 1960
VWidth: 0
GlyphClass: 2
Flags: HW
LayerCount: 2
Fore
SplineSet
1752 1431 m 257
 1908 1431 l 257
 1486 0 l 257
 1327 0 l 257
 980 1207 l 257
 632 0 l 257
 473 0 l 257
 52 1431 l 257
 208 1431 l 257
 553 223 l 257
 902 1431 l 257
 1058 1431 l 257
 1406 223 l 257
 1752 1431 l 257
EndSplineSet
EndChar

StartChar: X
Encoding: 88 88 62
Width: 1216
VWidth: 0
GlyphClass: 2
Flags: HW
LayerCount: 2
Fore
SplineSet
1176 0 m 257
 1002 0 l 257
 608 591 l 257
 214 0 l 257
 40 0 l 257
 520 705 l 257
 40 1431 l 257
 214 1431 l 257
 608 819 l 257
 1002 1431 l 257
 1176 1431 l 257
 696 705 l 257
 1176 0 l 257
EndSplineSet
EndChar

StartChar: Y
Encoding: 89 89 63
Width: 1179
VWidth: 0
GlyphClass: 2
Flags: HW
LayerCount: 2
Fore
SplineSet
984 1431 m 257
 1157 1431 l 257
 665 652 l 257
 665 0 l 257
 515 0 l 257
 515 652 l 257
 22 1431 l 257
 195 1431 l 257
 590 789 l 257
 984 1431 l 257
EndSplineSet
EndChar

StartChar: Z
Encoding: 90 90 65
Width: 1290
VWidth: 0
GlyphClass: 2
Flags: HW
LayerCount: 2
Fore
SplineSet
82 1304 m 257
 82 1431 l 257
 1208 1431 l 257
 1208 1300 l 257
 252 128 l 257
 1208 128 l 257
 1208 0 l 257
 82 0 l 257
 82 132 l 257
 1038 1304 l 257
 82 1304 l 257
EndSplineSet
EndChar

StartChar: a
Encoding: 97 97 66
Width: 1020
VWidth: 0
GlyphClass: 2
Flags: HW
LayerCount: 2
Fore
SplineSet
908 0 m 257
 761 0 l 257
 735 88 718 192 718 340 c 258
 718 746 l 258
 718 868 617 934 484 934 c 256
 351 934 252 868 252 746 c 257
 102 746 l 257
 102 956 295 1062 484 1062 c 256
 666 1062 868 960 868 749 c 258
 868 340 l 258
 868 199 886 75 908 0 c 257
EndSplineSet
Refer: 317 57355 N 1 0 0 1 -43 0 2
EndChar

StartChar: acute
Encoding: 180 180 69
Width: 517
VWidth: 0
GlyphClass: 2
Flags: HW
LayerCount: 2
Fore
SplineSet
327 1504 m 257
 390 1464 l 257
 190 1144 l 257
 127 1184 l 257
 327 1504 l 257
EndSplineSet
EndChar

StartChar: ae
Encoding: 230 230 71
Width: 1729
VWidth: 0
GlyphClass: 2
Flags: HW
LayerCount: 2
Fore
SplineSet
865 481 m 257
 883 251 1012 107 1228 107 c 256
 1312 107 1427 127 1548 189 c 257
 1612 82 l 257
 1468 9 1328 -20 1214 -20 c 256
 999 -20 864 78 789 226 c 257
 724 84 587 -20 398 -20 c 256
 214 -20 75 97 75 277 c 256
 75 529 317 618 572 618 c 256
 617 618 663 616 710 610 c 257
 710 711 l 258
 710 833 629 935 476 935 c 256
 335 935 244 868 244 746 c 257
 94 746 l 257
 94 956 280 1062 476 1062 c 256
 630 1062 756 974 818 857 c 257
 893 961 1011 1062 1179 1062 c 256
 1506 1062 1655 802 1655 538 c 258
 1655 481 l 257
 865 481 l 257
865 594 m 257
 1499 594 l 257
 1479 799 1370 935 1179 935 c 256
 989 935 884 799 865 594 c 257
710 495 m 257
 660 502 613 506 569 506 c 256
 367 506 222 436 222 285 c 256
 222 169 295 110 412 110 c 256
 592 110 710 232 710 392 c 258
 710 495 l 257
EndSplineSet
EndChar

StartChar: ampersand
Encoding: 38 38 73
Width: 1188
VWidth: 0
GlyphClass: 2
Flags: HW
LayerCount: 2
Fore
SplineSet
475 829 m 257
 625 909 739 979 739 1117 c 256
 739 1205 671 1289 544 1289 c 256
 411 1289 340 1199 340 1087 c 256
 340 1031 356 987 394 937 c 258
 475 829 l 257
779 182 m 257
 432 646 l 257
 325 580 250 509 250 375 c 256
 250 219 357 121 545 121 c 256
 639 121 719 143 779 182 c 257
968 165 m 257
 1077 20 l 257
 950 -51 l 257
 858 73 l 257
 772 21 665 -7 545 -7 c 256
 287 -7 100 146 100 375 c 256
 100 565 220 677 349 757 c 257
 271 862 l 257
 215 930 190 1010 190 1087 c 256
 190 1253 314 1416 544 1416 c 256
 757 1416 889 1271 889 1117 c 256
 889 905 708 797 558 718 c 257
 874 291 l 257
 915 351 938 429 938 523 c 257
 1088 523 l 257
 1088 379 1050 259 968 165 c 257
EndSplineSet
EndChar

StartChar: asciicircum
Encoding: 94 94 75
Width: 704
VWidth: 0
GlyphClass: 2
Flags: HW
LayerCount: 2
Fore
SplineSet
615 1164 m 257
 556 1117 l 257
 352 1374 l 257
 148 1117 l 257
 89 1164 l 257
 314 1448 l 257
 390 1448 l 257
 615 1164 l 257
EndSplineSet
EndChar

StartChar: asciitilde
Encoding: 126 126 76
Width: 868
VWidth: 0
GlyphClass: 2
Flags: HW
LayerCount: 2
Fore
SplineSet
78 1159 m 257
 131 1283 214 1336 288 1336 c 256
 351 1336 397 1315 456 1271 c 256
 508 1232 536 1221 581 1221 c 256
 615 1221 675 1252 721 1358 c 257
 791 1328 l 257
 738 1206 657 1146 581 1146 c 256
 518 1146 468 1167 412 1211 c 256
 358 1251 334 1261 288 1261 c 256
 252 1261 194 1235 148 1129 c 257
 78 1159 l 257
EndSplineSet
EndChar

StartChar: asterisk
Encoding: 42 42 77
Width: 1133
VWidth: 0
GlyphClass: 2
Flags: HW
LayerCount: 2
Fore
SplineSet
176 1106 m 257
 210 1209 l 257
 511 1110 l 257
 511 1428 l 257
 621 1428 l 257
 621 1110 l 257
 923 1209 l 257
 957 1106 l 257
 654 1006 l 257
 842 749 l 257
 754 685 l 257
 566 942 l 257
 378 685 l 257
 291 749 l 257
 478 1006 l 257
 176 1106 l 257
EndSplineSet
EndChar

StartChar: at
Encoding: 64 64 78
Width: 2211
VWidth: 0
GlyphClass: 2
Flags: HW
LayerCount: 2
Fore
SplineSet
1121 1062 m 256
 1330 1062 1431 990 1530 912 c 257
 1476 307 l 258
 1475 298 1475 291 1475 280 c 256
 1475 165 1547 98 1649 98 c 256
 1811 98 1938 282 1938 532 c 256
 1938 1004 1557 1374 1106 1374 c 256
 655 1374 272 1004 272 532 c 256
 272 60 654 -310 1106 -310 c 256
 1189 -310 1269 -299 1345 -275 c 257
 1384 -374 l 257
 1296 -400 1204 -414 1106 -414 c 256
 571 -414 150 16 150 532 c 256
 150 1048 570 1479 1106 1479 c 256
 1642 1479 2061 1048 2061 532 c 256
 2061 276 1930 -20 1629 -20 c 256
 1495 -20 1404 46 1362 138 c 257
 1278 32 1161 -20 1038 -20 c 256
 818 -20 602 123 602 454 c 256
 602 840 835 1062 1121 1062 c 256
1121 935 m 256
 942 935 752 798 752 454 c 256
 752 181 901 106 1038 106 c 256
 1161 106 1316 200 1341 481 c 258
 1374 862 l 257
 1314 905 1251 935 1121 935 c 256
EndSplineSet
EndChar

StartChar: b
Encoding: 98 98 80
Width: 1198
VWidth: 0
GlyphClass: 2
Flags: HW
LayerCount: 2
Fore
SplineSet
308 0 m 257
 158 0 l 257
 158 1431 l 257
 308 1431 l 257
 308 0 l 257
EndSplineSet
Refer: 321 57359 N 1 0 0 1 12 0 2
EndChar

StartChar: backslash
Encoding: 92 92 81
Width: 1019
VWidth: 0
GlyphClass: 2
Flags: HW
LayerCount: 2
Fore
SplineSet
942 22 m 257
 808 -46 l 257
 77 1387 l 257
 212 1456 l 257
 942 22 l 257
EndSplineSet
EndChar

StartChar: bar
Encoding: 124 124 82
Width: 440
VWidth: 0
GlyphClass: 2
Flags: HW
LayerCount: 2
Fore
SplineSet
145 1431 m 257
 295 1431 l 257
 295 -412 l 257
 145 -412 l 257
 145 1431 l 257
EndSplineSet
EndChar

StartChar: braceleft
Encoding: 123 123 83
Width: 706
VWidth: 0
GlyphClass: 2
Flags: HW
LayerCount: 2
Fore
SplineSet
309 716 m 257
 385 661 435 577 435 476 c 258
 435 204 l 258
 435 150 462 128 514 128 c 258
 644 128 l 257
 644 0 l 257
 497 0 l 258
 376 0 285 82 285 192 c 258
 285 476 l 258
 285 567 226 628 152 649 c 258
 100 664 l 257
 100 769 l 257
 152 784 l 258
 226 805 285 865 285 956 c 258
 285 1241 l 258
 285 1351 376 1431 497 1431 c 258
 644 1431 l 257
 644 1304 l 257
 514 1304 l 258
 462 1304 435 1282 435 1228 c 258
 435 956 l 258
 435 854 385 770 309 716 c 257
EndSplineSet
EndChar

StartChar: braceright
Encoding: 125 125 84
Width: 706
VWidth: 0
GlyphClass: 2
Flags: HW
LayerCount: 2
Fore
SplineSet
434 716 m 257
 358 770 308 854 308 956 c 258
 308 1228 l 258
 308 1282 281 1304 229 1304 c 258
 100 1304 l 257
 100 1431 l 257
 246 1431 l 258
 367 1431 458 1351 458 1241 c 258
 458 956 l 258
 458 865 518 805 592 784 c 258
 644 769 l 257
 644 664 l 257
 592 649 l 258
 518 628 458 567 458 476 c 258
 458 192 l 258
 458 82 367 0 246 0 c 258
 100 0 l 257
 100 128 l 257
 229 128 l 258
 281 128 308 150 308 204 c 258
 308 476 l 258
 308 577 358 661 434 716 c 257
EndSplineSet
EndChar

StartChar: bracketleft
Encoding: 91 91 85
Width: 642
VWidth: 0
GlyphClass: 2
Flags: HW
LayerCount: 2
Fore
SplineSet
554 128 m 257
 554 0 l 257
 145 0 l 257
 145 1431 l 257
 554 1431 l 257
 554 1304 l 257
 295 1304 l 257
 295 128 l 257
 554 128 l 257
EndSplineSet
EndChar

StartChar: bracketright
Encoding: 93 93 86
Width: 642
VWidth: 0
GlyphClass: 2
Flags: HW
LayerCount: 2
Fore
SplineSet
88 1304 m 257
 88 1431 l 257
 497 1431 l 257
 497 0 l 257
 88 0 l 257
 88 128 l 257
 347 128 l 257
 347 1304 l 257
 88 1304 l 257
EndSplineSet
EndChar

StartChar: brokenbar
Encoding: 166 166 87
Width: 440
VWidth: 0
GlyphClass: 2
Flags: HW
LayerCount: 2
Fore
SplineSet
295 862 m 257
 145 862 l 257
 145 1431 l 257
 295 1431 l 257
 295 862 l 257
295 0 m 257
 145 0 l 257
 145 531 l 257
 295 531 l 257
 295 0 l 257
EndSplineSet
EndChar

StartChar: c
Encoding: 99 99 88
Width: 1038
VWidth: 0
GlyphClass: 2
Flags: HW
LayerCount: 2
Fore
SplineSet
820 274 m 257
 955 218 l 257
 885 82 750 -20 552 -20 c 256
 224 -20 82 258 82 520 c 256
 82 782 224 1062 552 1062 c 256
 750 1062 884 962 956 827 c 257
 820 771 l 257
 768 869 686 935 552 935 c 256
 344 935 232 754 232 520 c 256
 232 286 343 108 552 108 c 256
 687 108 767 175 820 274 c 257
EndSplineSet
EndChar

StartChar: cedilla
Encoding: 184 184 90
Width: 723
VWidth: 0
GlyphClass: 2
Flags: HW
LayerCount: 2
Fore
SplineSet
161 -348 m 257
 209 -390 267 -411 350 -411 c 256
 436 -411 511 -366 511 -319 c 256
 511 -230 416 -108 320 -35 c 257
 374 47 l 257
 501 -45 599 -176 599 -319 c 256
 599 -462 454 -508 349 -508 c 256
 246 -508 173 -479 106 -413 c 257
 161 -348 l 257
EndSplineSet
EndChar

StartChar: cent
Encoding: 162 162 91
Width: 1038
VWidth: 0
GlyphClass: 2
Flags: HW
LayerCount: 2
Fore
SplineSet
626 984 m 257
 476 984 l 257
 476 1431 l 257
 626 1431 l 257
 626 984 l 257
626 -348 m 257
 476 -348 l 257
 476 96 l 257
 626 96 l 257
 626 -348 l 257
EndSplineSet
Refer: 88 99 N 1 0 0 1 0 0 2
EndChar

StartChar: comma
Encoding: 44 44 93
Width: 465
VWidth: 0
GlyphClass: 2
Flags: HW
LayerCount: 2
Fore
SplineSet
220 -217 m 257
 167 -176 l 257
 192 -148 266 -46 266 50 c 257
 188 50 146 84 146 156 c 256
 146 216 190 257 244 257 c 256
 312 257 356 211 356 120 c 256
 356 -32 278 -146 220 -217 c 257
EndSplineSet
EndChar

StartChar: copyright
Encoding: 169 169 94
Width: 1750
VWidth: 0
GlyphClass: 2
Flags: HW
LayerCount: 2
Fore
SplineSet
265 720 m 256
 265 372 546 102 875 102 c 256
 1204 102 1485 372 1485 720 c 256
 1485 1068 1204 1336 875 1336 c 256
 546 1336 265 1068 265 720 c 256
115 720 m 256
 115 1128 448 1469 875 1469 c 256
 1302 1469 1635 1128 1635 720 c 256
 1635 312 1302 -30 875 -30 c 256
 448 -30 115 312 115 720 c 256
1192 968 m 257
 1090 907 l 257
 1036 973 954 1008 875 1008 c 256
 723 1008 598 883 598 721 c 256
 598 560 722 435 875 435 c 256
 954 435 1036 470 1090 536 c 257
 1192 474 l 257
 1116 382 998 327 875 327 c 256
 636 327 472 516 472 721 c 256
 472 925 635 1115 875 1115 c 256
 998 1115 1116 1060 1192 968 c 257
EndSplineSet
EndChar

StartChar: currency
Encoding: 164 164 95
Width: 1305
VWidth: 0
GlyphClass: 2
Flags: HW
LayerCount: 2
Fore
SplineSet
440 912 m 257
 319 834 l 257
 72 1116 l 257
 193 1194 l 257
 440 912 l 257
319 244 m 257
 440 166 l 257
 193 -116 l 257
 72 -38 l 257
 319 244 l 257
986 834 m 257
 866 912 l 257
 1112 1194 l 257
 1232 1116 l 257
 986 834 l 257
866 166 m 257
 986 244 l 257
 1232 -38 l 257
 1112 -116 l 257
 866 166 l 257
EndSplineSet
Refer: 147 111 N 1 0 0 1 96 0 2
EndChar

StartChar: d
Encoding: 100 100 96
Width: 1198
VWidth: 0
GlyphClass: 2
Flags: HW
LayerCount: 2
Fore
SplineSet
1040 0 m 257
 890 0 l 257
 890 1431 l 257
 1040 1431 l 257
 1040 0 l 257
EndSplineSet
Refer: 321 57359 N -1 0 0 -1 1186 1042 2
EndChar

StartChar: degree
Encoding: 176 176 97
Width: 646
VWidth: 0
GlyphClass: 2
Flags: HW
LayerCount: 2
Fore
SplineSet
478 1427 m 256
 478 1514 410 1582 323 1582 c 256
 236 1582 168 1514 168 1427 c 256
 168 1340 236 1273 323 1273 c 256
 410 1273 478 1340 478 1427 c 256
552 1427 m 256
 552 1300 450 1198 323 1198 c 256
 196 1198 94 1300 94 1427 c 256
 94 1554 196 1657 323 1657 c 256
 450 1657 552 1554 552 1427 c 256
EndSplineSet
EndChar

StartChar: dotlessi
Encoding: 305 305 104
Width: 425
VWidth: 0
GlyphClass: 2
Flags: HW
LayerCount: 2
Fore
SplineSet
138 1042 m 257
 288 1042 l 257
 288 0 l 257
 138 0 l 257
 138 1042 l 257
EndSplineSet
EndChar

StartChar: e
Encoding: 101 101 107
Width: 1089
VWidth: 0
GlyphClass: 2
Flags: HW
LayerCount: 2
Fore
SplineSet
230 464 m 257
 248 202 401 108 602 108 c 256
 706 108 823 133 931 184 c 257
 977 82 l 257
 844 9 708 -20 588 -20 c 256
 291 -20 75 164 75 520 c 256
 75 782 216 1062 544 1062 c 256
 871 1062 1015 784 1015 520 c 258
 1014 464 l 257
 230 464 l 257
230 577 m 257
 859 577 l 257
 839 782 735 935 544 935 c 256
 354 935 249 782 230 577 c 257
EndSplineSet
EndChar

StartChar: eight
Encoding: 56 56 112
Width: 1107
VWidth: 0
GlyphClass: 2
Flags: HW
LayerCount: 2
Fore
SplineSet
793 1068 m 256
 793 1178 724 1289 554 1289 c 256
 384 1289 314 1177 314 1068 c 256
 314 908 381 831 553 831 c 256
 725 831 793 907 793 1068 c 256
250 380 m 256
 250 228 357 121 554 121 c 256
 751 121 857 228 857 380 c 256
 857 558 714 698 553 698 c 256
 386 698 250 562 250 380 c 256
780 762 m 257
 914 687 1007 536 1007 380 c 256
 1007 158 827 -7 554 -7 c 256
 281 -7 100 158 100 380 c 256
 100 538 191 689 325 763 c 257
 221 823 164 937 164 1068 c 256
 164 1229 286 1416 554 1416 c 256
 822 1416 943 1229 943 1068 c 256
 943 935 884 820 780 762 c 257
EndSplineSet
EndChar

StartChar: eth
Encoding: 240 240 114
Width: 1113
VWidth: 0
GlyphClass: 2
Flags: HW
LayerCount: 2
Fore
SplineSet
556 935 m 256
 348 935 238 754 238 520 c 256
 238 286 347 108 556 108 c 256
 765 108 876 286 876 520 c 256
 876 754 764 935 556 935 c 256
556 1062 m 256
 628 1062 691 1049 744 1024 c 257
 693 1099 633 1170 568 1231 c 257
 411 1105 l 257
 333 1202 l 257
 469 1312 l 257
 403 1358 333 1391 263 1404 c 257
 286 1527 l 257
 388 1508 484 1461 571 1395 c 257
 718 1514 l 257
 796 1417 l 257
 667 1312 l 257
 899 1085 1026 798 1026 520 c 256
 1026 258 884 -20 556 -20 c 256
 228 -20 88 258 88 520 c 256
 88 782 228 1062 556 1062 c 256
EndSplineSet
EndChar

StartChar: exclam
Encoding: 33 33 115
Width: 610
VWidth: 0
GlyphClass: 2
Flags: HW
LayerCount: 2
Fore
SplineSet
380 412 m 257
 230 412 l 257
 230 1447 l 257
 380 1447 l 257
 380 412 l 257
EndSplineSet
Refer: 165 46 N 1 0 0 1 30 0 2
EndChar

StartChar: f
Encoding: 102 102 117
Width: 664
VWidth: 0
GlyphClass: 2
Flags: HW
LayerCount: 2
Fore
SplineSet
659 1448 m 257
 659 1334 l 257
 468 1334 l 258
 415 1334 365 1291 365 1225 c 258
 365 0 l 257
 215 0 l 257
 215 1225 l 258
 215 1352 320 1466 466 1466 c 257
 533 1466 599 1459 659 1448 c 257
EndSplineSet
Refer: 316 57354 N 1 0 0 1 -42 470 2
EndChar

StartChar: five
Encoding: 53 53 119
Width: 1188
VWidth: 0
GlyphClass: 2
Flags: HW
LayerCount: 2
Fore
SplineSet
152 395 m 257
 302 395 l 257
 302 225 396 121 576 121 c 256
 804 121 920 227 920 495 c 256
 920 737 800 875 576 875 c 256
 480 875 364 828 271 760 c 257
 169 811 l 257
 227 1411 l 257
 1082 1411 l 257
 1082 1284 l 257
 364 1284 l 257
 332 942 l 257
 414 980 497 998 576 998 c 256
 897 998 1070 782 1070 495 c 256
 1070 180 893 -7 576 -7 c 256
 304 -7 152 169 152 395 c 257
EndSplineSet
EndChar

StartChar: four
Encoding: 52 52 120
Width: 1159
VWidth: 0
GlyphClass: 2
Flags: HW
LayerCount: 2
Fore
SplineSet
762 452 m 257
 762 1203 l 257
 237 452 l 257
 762 452 l 257
1112 452 m 257
 1112 330 l 257
 912 330 l 257
 912 -19 l 257
 762 -19 l 257
 762 330 l 257
 78 330 l 257
 78 454 l 257
 747 1411 l 257
 912 1411 l 257
 912 452 l 257
 1112 452 l 257
EndSplineSet
EndChar

StartChar: g
Encoding: 103 103 121
Width: 1200
VWidth: 0
GlyphClass: 2
Flags: HW
LayerCount: 2
Fore
SplineSet
893 1042 m 257
 1043 1042 l 257
 1043 72 l 258
 1043 -277 812 -430 547 -430 c 256
 400 -430 249 -383 117 -306 c 257
 174 -200 l 257
 283 -264 415 -305 538 -305 c 256
 729 -305 893 -207 893 56 c 258
 893 1042 l 257
EndSplineSet
Refer: 321 57359 N -1 0 0 -1 1188 1042 2
EndChar

StartChar: germandbls
Encoding: 223 223 122
Width: 1164
VWidth: 0
GlyphClass: 2
Flags: HW
LayerCount: 2
Fore
SplineSet
544 0 m 257
 544 133 l 257
 836 133 914 149 914 258 c 256
 914 336 864 382 791 434 c 256
 719 486 619 559 619 694 c 256
 619 794 661 848 703 900 c 256
 742 948 780 996 780 1080 c 256
 780 1224 702 1324 547 1324 c 256
 386 1324 315 1226 315 1071 c 258
 315 0 l 257
 165 0 l 257
 165 1071 l 258
 165 1267 283 1451 547 1451 c 256
 805 1451 930 1268 930 1071 c 256
 930 962 884 895 836 845 c 256
 799 805 768 765 768 697 c 256
 768 627 816 587 885 538 c 256
 964 482 1064 397 1064 255 c 256
 1064 32 878 0 544 0 c 257
EndSplineSet
EndChar

StartChar: grave
Encoding: 96 96 123
Width: 524
VWidth: 0
GlyphClass: 2
Flags: HW
LayerCount: 2
Fore
SplineSet
394 1184 m 257
 331 1144 l 257
 130 1464 l 257
 193 1504 l 257
 394 1184 l 257
EndSplineSet
EndChar

StartChar: greater
Encoding: 62 62 124
Width: 775
VWidth: 0
GlyphClass: 2
Flags: HW
LayerCount: 2
Fore
SplineSet
189 165 m 257
 122 235 l 257
 514 606 l 257
 122 979 l 257
 189 1048 l 257
 655 606 l 257
 189 165 l 257
EndSplineSet
EndChar

StartChar: h
Encoding: 104 104 127
Width: 1118
VWidth: 0
GlyphClass: 2
Flags: HW
LayerCount: 2
Fore
SplineSet
298 0 m 257
 148 0 l 257
 148 1431 l 257
 298 1431 l 257
 298 0 l 257
EndSplineSet
Refer: 319 57357 N 1 0 0 1 22 0 2
EndChar

StartChar: hyphen
Encoding: 45 45 128
Width: 993
VWidth: 0
GlyphClass: 2
Flags: HW
LayerCount: 2
Fore
SplineSet
886 570 m 257
 886 448 l 257
 108 448 l 257
 108 570 l 257
 886 570 l 257
EndSplineSet
EndChar

StartChar: k
Encoding: 107 107 135
Width: 990
VWidth: 0
GlyphClass: 2
Flags: HW
LayerCount: 2
Fore
SplineSet
798 1042 m 257
 990 1042 l 257
 504 521 l 257
 956 0 l 257
 768 0 l 257
 407 413 l 257
 300 296 l 257
 300 0 l 257
 150 0 l 257
 150 1431 l 257
 300 1431 l 257
 300 508 l 257
 798 1042 l 257
EndSplineSet
EndChar

StartChar: l
Encoding: 108 108 136
Width: 485
VWidth: 0
GlyphClass: 2
Flags: HW
LayerCount: 2
Fore
SplineSet
318 0 m 257
 168 0 l 257
 168 1431 l 257
 318 1431 l 257
 318 0 l 257
EndSplineSet
EndChar

StartChar: less
Encoding: 60 60 137
Width: 775
VWidth: 0
GlyphClass: 2
Flags: HW
LayerCount: 2
Fore
SplineSet
565 1048 m 257
 632 979 l 257
 240 607 l 257
 632 235 l 257
 565 165 l 257
 99 607 l 257
 565 1048 l 257
EndSplineSet
EndChar

StartChar: logicalnot
Encoding: 172 172 138
Width: 1073
VWidth: 0
GlyphClass: 2
Flags: HW
LayerCount: 2
Fore
SplineSet
88 443 m 257
 88 575 l 257
 928 575 l 257
 928 225 l 257
 778 225 l 257
 778 443 l 257
 88 443 l 257
EndSplineSet
EndChar

StartChar: m
Encoding: 109 109 139
Width: 1591
VWidth: 0
GlyphClass: 2
Flags: HW
LayerCount: 2
Fore
SplineSet
142 1042 m 257
 292 1042 l 257
 292 0 l 257
 142 0 l 257
 142 1042 l 257
EndSplineSet
Refer: 318 57356 N 1 0 0 1 -550 0 2
Refer: 318 57356 N 1 0 0 1 28 0 2
EndChar

StartChar: mu
Encoding: 181 181 141
Width: 1123
VWidth: 0
GlyphClass: 2
Flags: HW
LayerCount: 2
Fore
SplineSet
152 1042 m 257
 302 1042 l 257
 302 352 l 258
 302 234 346 118 512 118 c 256
 695 118 820 248 820 430 c 258
 820 1042 l 257
 970 1042 l 257
 970 0 l 257
 820 0 l 257
 820 118 l 257
 743 38 634 -15 502 -15 c 256
 412 -15 347 10 302 48 c 257
 302 -504 l 257
 152 -504 l 257
 152 1042 l 257
EndSplineSet
EndChar

StartChar: n
Encoding: 110 110 143
Width: 1118
VWidth: 0
GlyphClass: 2
Flags: HW
LayerCount: 2
Fore
SplineSet
298 0 m 257
 148 0 l 257
 148 1042 l 257
 298 1042 l 257
 298 0 l 257
EndSplineSet
Refer: 319 57357 N 1 0 0 1 22 0 2
EndChar

StartChar: nine
Encoding: 57 57 144
Width: 1167
VWidth: 0
GlyphClass: 2
Flags: HW
LayerCount: 2
Fore
SplineSet
892 774 m 257
 882 1071 810 1290 554 1290 c 256
 365 1290 248 1140 248 970 c 256
 248 748 385 638 548 638 c 256
 657 638 780 682 892 774 c 257
886 620 m 257
 779 549 656 513 547 513 c 256
 290 513 98 682 98 968 c 256
 98 1192 261 1416 554 1416 c 256
 985 1416 1042 1018 1042 722 c 256
 1042 262 852 -7 524 -7 c 256
 358 -7 225 44 113 138 c 257
 198 229 l 257
 294 153 391 121 511 121 c 256
 713 121 873 263 886 620 c 257
EndSplineSet
EndChar

StartChar: numbersign
Encoding: 35 35 146
Width: 1698
VWidth: 0
GlyphClass: 2
Flags: HW
LayerCount: 2
Fore
SplineSet
423 -30 m 257
 278 4 l 257
 406 429 l 257
 115 429 l 257
 115 552 l 257
 447 552 l 257
 548 894 l 257
 207 894 l 257
 207 1016 l 257
 589 1016 l 257
 717 1439 l 257
 862 1405 l 257
 745 1016 l 257
 1137 1016 l 257
 1265 1439 l 257
 1410 1405 l 257
 1293 1016 l 257
 1583 1016 l 257
 1583 894 l 257
 1252 894 l 257
 1151 552 l 257
 1491 552 l 257
 1491 429 l 257
 1110 429 l 257
 971 -30 l 257
 826 4 l 257
 954 429 l 257
 562 429 l 257
 423 -30 l 257
1096 894 m 257
 704 894 l 257
 603 552 l 257
 995 552 l 257
 1096 894 l 257
EndSplineSet
EndChar

StartChar: o
Encoding: 111 111 147
Width: 1105
VWidth: 0
GlyphClass: 2
Flags: HW
LayerCount: 2
Fore
SplineSet
553 935 m 256
 345 935 234 754 234 520 c 256
 234 286 344 108 553 108 c 256
 762 108 872 286 872 520 c 256
 872 754 761 935 553 935 c 256
553 1062 m 256
 881 1062 1022 782 1022 520 c 256
 1022 258 881 -20 553 -20 c 256
 225 -20 84 258 84 520 c 256
 84 782 225 1062 553 1062 c 256
EndSplineSet
EndChar

StartChar: one
Encoding: 49 49 153
Width: 907
VWidth: 0
GlyphClass: 2
Flags: HW
LayerCount: 2
Fore
SplineSet
202 1059 m 257
 200 1181 l 257
 325 1182 l 258
 450 1184 491 1204 520 1263 c 257
 520 1428 l 257
 670 1428 l 257
 670 -19 l 257
 520 -19 l 257
 520 1104 l 257
 465 1071 393 1061 306 1060 c 258
 202 1059 l 257
EndSplineSet
EndChar

StartChar: onehalf
Encoding: 189 189 154
Width: 2096
VWidth: 0
GlyphClass: 2
Flags: HW
LayerCount: 2
Fore
SplineSet
620 -58 m 257
 493 12 l 257
 1540 1400 l 257
 1666 1328 l 257
 620 -58 l 257
1981 -314 m 257
 1981 -441 l 257
 1244 -441 l 257
 1244 -317 l 257
 1740 157 l 258
 1797 211 1834 266 1834 367 c 256
 1834 517 1729 588 1612 588 c 256
 1497 588 1395 516 1395 354 c 257
 1245 354 l 257
 1245 587 1418 716 1612 716 c 256
 1798 716 1981 591 1981 361 c 256
 1981 220 1922 134 1850 67 c 258
 1453 -314 l 257
 1981 -314 l 257
138 1182 m 257
 138 1306 l 257
 202 1306 l 258
 326 1306 368 1323 396 1381 c 257
 396 1546 l 257
 546 1546 l 257
 546 460 l 257
 396 460 l 257
 396 1226 l 257
 340 1192 268 1182 182 1182 c 258
 138 1182 l 257
EndSplineSet
EndChar

StartChar: onequarter
Encoding: 188 188 155
Width: 1965
VWidth: 0
GlyphClass: 2
Flags: HW
LayerCount: 2
Fore
SplineSet
138 1182 m 257
 138 1306 l 257
 202 1306 l 258
 326 1306 368 1323 396 1381 c 257
 396 1546 l 257
 546 1546 l 257
 546 460 l 257
 396 460 l 257
 396 1226 l 257
 340 1192 268 1182 182 1182 c 258
 138 1182 l 257
1828 -60 m 257
 1828 -182 l 257
 1694 -182 l 257
 1694 -428 l 257
 1544 -428 l 257
 1544 -182 l 257
 1030 -182 l 257
 1030 -72 l 257
 1538 709 l 257
 1694 709 l 257
 1694 -60 l 257
 1828 -60 l 257
1544 -60 m 257
 1544 476 l 257
 1196 -60 l 257
 1544 -60 l 257
622 -58 m 257
 496 12 l 257
 1542 1400 l 257
 1668 1328 l 257
 622 -58 l 257
EndSplineSet
EndChar

StartChar: ordfeminine
Encoding: 170 170 156
Width: 747
VWidth: 0
GlyphClass: 2
Flags: HW
LayerCount: 2
Fore
SplineSet
502 1234 m 257
 502 1306 l 258
 502 1381 439 1417 350 1417 c 256
 260 1417 200 1382 200 1304 c 257
 126 1304 l 257
 126 1442 245 1492 350 1492 c 256
 453 1492 578 1443 578 1306 c 258
 578 1051 l 258
 578 964 602 935 622 920 c 257
 576 861 l 257
 553 879 532 906 519 945 c 257
 467 886 396 856 310 856 c 256
 194 856 112 928 112 1030 c 256
 112 1184 252 1240 411 1240 c 256
 443 1240 470 1238 502 1234 c 257
502 1158 m 257
 467 1162 443 1165 411 1165 c 256
 260 1165 188 1120 188 1030 c 256
 188 976 226 931 310 931 c 256
 403 931 467 972 502 1058 c 257
 502 1158 l 257
EndSplineSet
EndChar

StartChar: p
Encoding: 112 112 160
Width: 1190
VWidth: 0
GlyphClass: 2
Flags: HW
LayerCount: 2
Fore
SplineSet
150 1042 m 257
 300 1042 l 257
 300 -410 l 257
 150 -410 l 257
 150 1042 l 257
EndSplineSet
Refer: 321 57359 N 1 0 0 1 5 0 2
EndChar

StartChar: paragraph
Encoding: 182 182 161
Width: 1268
VWidth: 0
GlyphClass: 2
Flags: HW
LayerCount: 2
Fore
SplineSet
708 1304 m 257
 541 1304 l 258
 393 1304 250 1179 250 970 c 256
 250 761 393 637 541 637 c 258
 708 637 l 257
 708 1304 l 257
1116 -412 m 257
 986 -412 l 257
 986 1304 l 257
 838 1304 l 257
 838 -412 l 257
 708 -412 l 257
 708 509 l 257
 541 509 l 258
 289 509 100 714 100 970 c 256
 100 1226 289 1431 541 1431 c 258
 1116 1431 l 257
 1116 -412 l 257
EndSplineSet
EndChar

StartChar: parenleft
Encoding: 40 40 162
Width: 598
VWidth: 0
GlyphClass: 2
Flags: HW
LayerCount: 2
Fore
SplineSet
468 29 m 257
 342 -52 l 257
 204 164 125 407 125 705 c 256
 125 1003 204 1245 342 1461 c 257
 468 1380 l 257
 344 1187 275 978 275 705 c 256
 275 432 344 222 468 29 c 257
EndSplineSet
EndChar

StartChar: parenright
Encoding: 41 41 163
Width: 598
VWidth: 0
GlyphClass: 2
Flags: HW
LayerCount: 2
Fore
SplineSet
130 1380 m 257
 256 1461 l 257
 394 1245 473 1002 473 704 c 256
 473 406 394 164 256 -52 c 257
 130 29 l 257
 254 222 323 431 323 704 c 256
 323 977 254 1187 130 1380 c 257
EndSplineSet
EndChar

StartChar: period
Encoding: 46 46 165
Width: 550
VWidth: 0
GlyphClass: 2
Flags: HW
LayerCount: 2
Fore
SplineSet
172 102 m 256
 172 158 220 202 276 202 c 256
 332 202 378 158 378 102 c 256
 378 46 332 0 276 0 c 256
 220 0 172 46 172 102 c 256
EndSplineSet
EndChar

StartChar: plus
Encoding: 43 43 167
Width: 993
VWidth: 0
GlyphClass: 2
Flags: HW
LayerCount: 2
Fore
SplineSet
886 570 m 257
 886 448 l 257
 566 448 l 257
 566 121 l 257
 426 121 l 257
 426 448 l 257
 108 448 l 257
 108 570 l 257
 426 570 l 257
 426 898 l 257
 566 898 l 257
 566 570 l 257
 886 570 l 257
EndSplineSet
EndChar

StartChar: q
Encoding: 113 113 169
Width: 1190
VWidth: 0
GlyphClass: 2
Flags: HW
LayerCount: 2
Fore
SplineSet
890 1042 m 257
 1040 1042 l 257
 1040 -410 l 257
 890 -410 l 257
 890 1042 l 257
EndSplineSet
Refer: 321 57359 N -1 0 0 -1 1186 1042 2
EndChar

StartChar: question
Encoding: 63 63 170
Width: 1067
VWidth: 0
GlyphClass: 2
Flags: HW
LayerCount: 2
Fore
SplineSet
282 978 m 257
 132 960 l 257
 128 992 125 1028 125 1058 c 256
 125 1263 259 1446 528 1446 c 256
 792 1446 942 1243 942 1017 c 256
 942 864 854 789 766 729 c 256
 676 667 588 601 588 426 c 257
 438 426 l 257
 438 640 554 736 652 807 c 256
 732 865 792 917 792 1030 c 256
 792 1198 690 1319 528 1319 c 256
 356 1319 275 1215 275 1058 c 256
 275 1030 277 1004 282 978 c 257
EndSplineSet
Refer: 165 46 N -1 0 0 1 796 0 2
EndChar

StartChar: quoteleft
Encoding: 8216 8216 175
Width: 598
VWidth: 0
GlyphClass: 2
Flags: HW
LayerCount: 2
Fore
SplineSet
276 745 m 257
 204 865 147 1060 147 1213 c 256
 147 1330 202 1410 306 1410 c 256
 409 1410 451 1341 451 1257 c 256
 451 1099 249 1211 249 1117 c 256
 249 1036 296 875 342 793 c 257
 276 745 l 257
EndSplineSet
EndChar

StartChar: quoteright
Encoding: 8217 8217 176
Width: 598
VWidth: 0
GlyphClass: 2
Flags: HW
LayerCount: 2
Fore
SplineSet
322 745 m 257
 256 793 l 257
 302 875 349 1036 349 1117 c 256
 349 1211 147 1099 147 1257 c 256
 147 1341 189 1410 292 1410 c 256
 396 1410 451 1330 451 1213 c 256
 451 1060 394 865 322 745 c 257
EndSplineSet
EndChar

StartChar: quotesingle
Encoding: 39 39 177
Width: 400
VWidth: 0
GlyphClass: 2
Flags: HW
LayerCount: 2
Fore
SplineSet
148 1413 m 257
 252 1413 l 257
 252 893 l 257
 148 893 l 257
 148 1413 l 257
EndSplineSet
EndChar

StartChar: r
Encoding: 114 114 178
Width: 721
VWidth: 0
GlyphClass: 2
Flags: HW
LayerCount: 2
Fore
SplineSet
150 1042 m 257
 300 1042 l 257
 300 0 l 257
 150 0 l 257
 150 1042 l 257
EndSplineSet
Refer: 320 57358 N 1 0 0 1 25 -2 2
EndChar

StartChar: registered
Encoding: 174 174 179
Width: 1750
VWidth: 0
GlyphClass: 2
Flags: HW
LayerCount: 2
Fore
SplineSet
115 720 m 256
 115 1128 448 1469 875 1469 c 256
 1302 1469 1635 1128 1635 720 c 256
 1635 312 1302 -30 875 -30 c 256
 448 -30 115 312 115 720 c 256
265 720 m 256
 265 372 546 102 875 102 c 256
 1204 102 1485 372 1485 720 c 256
 1485 1068 1204 1336 875 1336 c 256
 546 1336 265 1068 265 720 c 256
722 681 m 257
 906 681 l 258
 1011 681 1094 744 1094 846 c 256
 1094 948 1012 1013 906 1013 c 258
 722 1013 l 257
 722 681 l 257
1195 368 m 257
 1093 306 l 257
 874 573 l 257
 722 573 l 257
 722 337 l 257
 598 337 l 257
 598 1121 l 257
 906 1121 l 258
 1078 1121 1220 1006 1220 846 c 256
 1220 720 1131 625 1013 590 c 257
 1195 368 l 257
EndSplineSet
EndChar

StartChar: s
Encoding: 115 115 180
Width: 989
VWidth: 0
GlyphClass: 2
Flags: HW
LayerCount: 2
Fore
SplineSet
90 318 m 257
 240 318 l 257
 240 183 352 123 494 123 c 256
 636 123 749 185 749 315 c 256
 749 431 654 461 482 481 c 256
 338 498 105 531 105 737 c 256
 105 960 315 1047 494 1047 c 256
 673 1047 882 959 882 737 c 257
 732 737 l 257
 732 863 629 920 494 920 c 256
 360 920 255 863 255 742 c 256
 255 646 336 618 502 598 c 256
 654 580 899 542 899 318 c 256
 899 87 680 -5 494 -5 c 256
 308 -5 90 88 90 318 c 257
EndSplineSet
EndChar

StartChar: section
Encoding: 167 167 181
Width: 1002
VWidth: 0
GlyphClass: 2
Flags: HW
LayerCount: 2
Fore
SplineSet
102 285 m 257
 252 285 l 257
 252 153 361 97 501 97 c 256
 642 97 752 154 752 277 c 257
 752 359 663 388 489 412 c 256
 333 433 100 471 100 691 c 256
 100 812 165 898 253 948 c 257
 168 984 100 1042 100 1145 c 256
 100 1373 316 1464 501 1464 c 256
 686 1464 901 1372 901 1145 c 257
 751 1145 l 257
 751 1277 642 1332 501 1332 c 256
 360 1332 250 1276 250 1152 c 257
 250 1069 340 1043 514 1016 c 256
 673 992 902 950 902 727 c 256
 902 608 840 528 754 480 c 257
 836 444 902 385 902 285 c 256
 902 57 686 -35 501 -35 c 256
 315 -35 102 59 102 285 c 257
495 884 m 257
 360 882 250 822 250 691 c 256
 250 591 333 568 507 544 c 257
 647 546 752 597 752 727 c 256
 752 834 667 858 495 884 c 257
EndSplineSet
EndChar

StartChar: seven
Encoding: 55 55 183
Width: 1093
VWidth: 0
GlyphClass: 2
Flags: HW
LayerCount: 2
Fore
SplineSet
75 1284 m 257
 75 1411 l 257
 943 1411 l 257
 986 1294 l 257
 387 -36 l 257
 246 11 l 257
 824 1284 l 257
 75 1284 l 257
EndSplineSet
EndChar

StartChar: simpledot
Encoding: 1114127 -1 184
Width: 2284
VWidth: 0
GlyphClass: 2
Flags: HW
LayerCount: 2
Fore
SplineSet
1064 131 m 257
 1187 254 l 257
 1310 131 l 257
 1187 8 l 257
 1064 131 l 257
EndSplineSet
EndChar

StartChar: six
Encoding: 54 54 185
Width: 1160
VWidth: 0
GlyphClass: 2
Flags: HW
LayerCount: 2
Fore
SplineSet
617 773 m 256
 508 773 385 728 273 636 c 257
 283 339 354 121 610 121 c 256
 799 121 918 269 918 439 c 256
 918 661 780 773 617 773 c 256
618 896 m 256
 875 896 1068 728 1068 442 c 256
 1068 218 903 -7 610 -7 c 256
 179 -7 122 392 122 688 c 256
 122 1133 311 1416 640 1416 c 256
 806 1416 940 1366 1052 1272 c 257
 967 1180 l 257
 871 1256 774 1290 654 1290 c 256
 453 1290 293 1134 280 790 c 257
 387 861 509 896 618 896 c 256
EndSplineSet
EndChar

StartChar: slash
Encoding: 47 47 186
Width: 1050
VWidth: 0
GlyphClass: 2
Flags: HW
LayerCount: 2
Fore
SplineSet
788 1453 m 257
 923 1390 l 257
 262 -44 l 257
 127 20 l 257
 788 1453 l 257
EndSplineSet
EndChar

StartChar: sterling
Encoding: 163 163 188
Width: 1269
VWidth: 0
GlyphClass: 2
Flags: HW
LayerCount: 2
Fore
SplineSet
602 1319 m 256
 520 1319 440 1250 440 1147 c 258
 440 278 l 258
 440 222 427 170 394 128 c 257
 1154 128 l 257
 1154 0 l 257
 115 0 l 257
 115 128 l 257
 229 128 290 168 290 278 c 258
 290 1142 l 258
 290 1303 420 1446 602 1446 c 256
 770 1446 888 1330 912 1184 c 257
 764 1165 l 257
 750 1254 684 1319 602 1319 c 256
EndSplineSet
Refer: 316 57354 N 1 0 0 1 28 18 2
EndChar

StartChar: t
Encoding: 116 116 189
Width: 697
VWidth: 0
GlyphClass: 2
Flags: HW
LayerCount: 2
Fore
SplineSet
637 130 m 257
 637 16 l 257
 583 5 523 -2 464 -2 c 257
 318 -2 214 112 214 239 c 258
 214 1332 l 257
 364 1332 l 257
 364 239 l 258
 364 173 414 130 467 130 c 258
 637 130 l 257
EndSplineSet
Refer: 316 57354 N 1 0 0 1 -65 470 2
EndChar

StartChar: three
Encoding: 51 51 191
Width: 1146
VWidth: 0
GlyphClass: 2
Flags: HW
LayerCount: 2
Fore
SplineSet
90 415 m 257
 240 415 l 257
 240 213 387 121 563 121 c 256
 732 121 889 196 889 390 c 256
 889 602 737 688 554 688 c 258
 468 688 l 257
 468 811 l 257
 554 811 l 258
 737 811 850 904 850 1042 c 256
 850 1211 719 1290 576 1290 c 256
 420 1290 299 1214 299 1039 c 257
 149 1039 l 257
 149 1301 364 1417 576 1417 c 256
 782 1417 1000 1293 1000 1042 c 256
 1000 916 932 810 824 752 c 257
 950 689 1039 564 1039 390 c 256
 1039 104 779 -7 563 -7 c 256
 328 -7 90 127 90 415 c 257
EndSplineSet
EndChar

StartChar: threequarters
Encoding: 190 190 192
Width: 2140
VWidth: 0
GlyphClass: 2
Flags: HW
LayerCount: 2
Fore
SplineSet
2002 -60 m 257
 2002 -182 l 257
 1869 -182 l 257
 1869 -428 l 257
 1719 -428 l 257
 1719 -182 l 257
 1205 -182 l 257
 1205 -72 l 257
 1714 709 l 257
 1869 709 l 257
 1869 -60 l 257
 2002 -60 l 257
1719 -60 m 257
 1719 475 l 257
 1371 -60 l 257
 1719 -60 l 257
426 924 m 258
 332 924 l 257
 332 1046 l 257
 426 1046 l 258
 575 1046 660 1097 660 1246 c 256
 660 1347 562 1436 443 1436 c 256
 331 1436 225 1370 225 1206 c 257
 75 1206 l 257
 75 1441 251 1564 443 1564 c 256
 642 1564 810 1423 810 1246 c 256
 810 1128 761 1039 674 985 c 257
 760 932 810 844 810 725 c 256
 810 548 642 407 443 407 c 256
 251 407 75 529 75 764 c 257
 225 764 l 257
 225 600 331 534 443 534 c 256
 562 534 660 624 660 725 c 256
 660 873 576 924 426 924 c 258
798 -58 m 257
 671 12 l 257
 1718 1400 l 257
 1844 1328 l 257
 798 -58 l 257
EndSplineSet
EndChar

StartChar: two
Encoding: 50 50 193
Width: 1154
VWidth: 0
GlyphClass: 2
Flags: HW
LayerCount: 2
Fore
SplineSet
1057 0 m 257
 100 0 l 257
 100 124 l 258
 100 394 378 532 636 623 c 256
 843 696 888 838 888 982 c 256
 888 1191 736 1290 574 1290 c 256
 422 1290 260 1178 260 952 c 257
 110 952 l 257
 110 1244 336 1418 574 1418 c 256
 814 1418 1038 1259 1038 982 c 256
 1038 814 973 603 694 505 c 256
 444 417 254 308 254 143 c 258
 254 128 l 257
 1057 128 l 257
 1057 0 l 257
EndSplineSet
EndChar

StartChar: u
Encoding: 117 117 194
Width: 1118
VWidth: 0
GlyphClass: 2
Flags: HW
LayerCount: 2
Fore
SplineSet
820 1042 m 257
 970 1042 l 257
 970 0 l 257
 820 0 l 257
 820 1042 l 257
EndSplineSet
Refer: 319 57357 N -1 0 0 -1 1096 1043 2
EndChar

StartChar: underscore
Encoding: 95 95 199
Width: 666
VWidth: 0
GlyphClass: 2
Flags: HW
LayerCount: 2
Fore
SplineSet
678 149 m 257
 678 -1 l 257
 -12 -1 l 257
 -12 149 l 257
 678 149 l 257
EndSplineSet
EndChar

StartChar: uni00B2
Encoding: 178 178 202
Width: 658
VWidth: 0
GlyphClass: 2
Flags: HW
LayerCount: 2
Fore
SplineSet
112 881 m 257
 112 954 l 257
 387 1204 l 258
 416 1233 430 1251 430 1302 c 256
 430 1380 374 1417 309 1417 c 256
 242 1417 188 1380 188 1300 c 257
 112 1300 l 257
 112 1430 213 1492 309 1492 c 256
 404 1492 506 1430 506 1302 c 256
 506 1229 473 1184 439 1152 c 258
 221 956 l 257
 510 956 l 257
 510 881 l 257
 112 881 l 257
EndSplineSet
EndChar

StartChar: uni00B3
Encoding: 179 179 203
Width: 606
VWidth: 0
GlyphClass: 2
Flags: HW
LayerCount: 2
Fore
SplineSet
188 1318 m 257
 112 1318 l 257
 112 1420 201 1492 303 1492 c 256
 403 1492 494 1420 494 1320 c 256
 494 1264 465 1217 421 1186 c 257
 463 1156 494 1108 494 1052 c 256
 494 952 403 881 303 881 c 256
 201 881 112 953 112 1055 c 257
 188 1055 l 257
 188 1003 234 956 303 956 c 256
 371 956 418 1002 418 1052 c 256
 418 1102 371 1149 303 1149 c 258
 240 1149 l 257
 240 1224 l 257
 303 1224 l 258
 371 1224 418 1270 418 1320 c 256
 418 1370 371 1417 303 1417 c 256
 234 1417 188 1370 188 1318 c 257
EndSplineSet
EndChar

StartChar: uni00B9
Encoding: 185 185 204
Width: 457
VWidth: 0
GlyphClass: 2
Flags: HW
LayerCount: 2
Fore
SplineSet
86 1275 m 257
 86 1350 l 257
 242 1350 l 257
 242 1457 l 257
 318 1457 l 257
 318 826 l 257
 242 826 l 257
 242 1275 l 257
 86 1275 l 257
EndSplineSet
EndChar

StartChar: uni0237
Encoding: 567 567 205
Width: 425
VWidth: 0
GlyphClass: 2
Flags: HW
LayerCount: 2
Fore
SplineSet
138 -174 m 258
 138 1042 l 257
 288 1042 l 257
 288 -174 l 258
 288 -300 182 -415 36 -415 c 257
 -2 -415 -41 -408 -75 -397 c 257
 -75 -282 l 257
 33 -282 l 258
 86 -282 138 -239 138 -174 c 258
EndSplineSet
EndChar

StartChar: uni060C
Encoding: 1548 1548 206
Width: 550
VWidth: 0
GlyphClass: 2
Flags: HW
LayerCount: 2
Fore
SplineSet
273 484 m 257
 334 441 l 257
 294 382 250 268 250 203 c 257
 316 203 384 174 384 104 c 256
 384 56 358 0 280 0 c 256
 206 0 166 53 166 131 c 256
 166 270 212 396 273 484 c 257
EndSplineSet
EndChar

StartChar: uni0615
Encoding: 1557 1557 207
Width: 0
VWidth: 0
GlyphClass: 4
Flags: H
AnchorPoint: "Anchor1" 0 1234 mark 0
AnchorPoint: "Anchor1" 0 1573 basemark 0
AnchorPoint: "Anchor5" 0 1234 mark 0
AnchorPoint: "Anchor4" 0 1234 mark 0
AnchorPoint: "Anchor-5" 0 1328 mark 0
AnchorPoint: "Anchor-4" 0 1328 mark 0
AnchorPoint: "Anchor-1" 0 1328 mark 0
AnchorPoint: "Anchor-1" 0 1573 basechar 0
LayerCount: 2
Fore
SplineSet
271 1714 m 256
 271 1545 64 1536 -150 1534 c 258
 -271 1534 l 257
 -271 1610 l 257
 -156 1610 l 257
 -156 2038 l 257
 -81 2038 l 257
 -81 1736 l 257
 -18 1815 56 1856 126 1856 c 256
 206 1856 271 1800 271 1714 c 256
-74 1611 m 257
 127 1617 196 1646 196 1714 c 256
 196 1758 171 1780 126 1780 c 256
 72 1780 -8 1734 -74 1611 c 257
EndSplineSet
EndChar

StartChar: uni061F
Encoding: 1567 1567 209
Width: 1067
VWidth: 0
GlyphClass: 2
Flags: HW
LayerCount: 2
Fore
SplineSet
629 410 m 257
 479 410 l 257
 479 585 391 651 301 713 c 256
 213 773 125 848 125 1001 c 256
 125 1227 275 1430 539 1430 c 256
 808 1430 942 1247 942 1042 c 256
 942 1012 939 977 935 945 c 257
 786 963 l 257
 791 989 792 1014 792 1042 c 256
 792 1199 711 1303 539 1303 c 256
 377 1303 275 1182 275 1014 c 256
 275 901 336 850 416 792 c 256
 514 721 629 624 629 410 c 257
EndSplineSet
Refer: 165 46 N -1 0 0 1 816 0 2
EndChar

StartChar: uni0660
Encoding: 1632 1632 261
Width: 845
VWidth: 0
GlyphClass: 2
Flags: HW
LayerCount: 2
Fore
SplineSet
422 622 m 256
 325 622 250 547 250 450 c 256
 250 353 326 276 422 276 c 256
 518 276 595 353 595 450 c 256
 595 546 519 622 422 622 c 256
422 747 m 256
 586 747 720 616 720 450 c 256
 720 285 588 151 422 151 c 256
 256 151 125 286 125 450 c 256
 125 615 257 747 422 747 c 256
EndSplineSet
PairPos2: "kernHorizontalKerninginArabiclookup3 subtable" uni0661 dx=50 dy=0 dh=50 dv=0 dx=0 dy=0 dh=0 dv=0
PairPos2: "kernHorizontalKerninginArabiclookup3 subtable" uni0667 dx=-100 dy=0 dh=-100 dv=0 dx=0 dy=0 dh=0 dv=0
PairPos2: "kernHorizontalKerninginArabiclookup3 subtable" uni0666 dx=-25 dy=0 dh=-25 dv=0 dx=0 dy=0 dh=0 dv=0
PairPos2: "kernHorizontalKerninginArabiclookup3 subtable" uni0662 dx=-125 dy=0 dh=-125 dv=0 dx=0 dy=0 dh=0 dv=0
EndChar

StartChar: uni0661
Encoding: 1633 1633 262
Width: 618
VWidth: 0
GlyphClass: 2
Flags: HW
LayerCount: 2
Fore
SplineSet
493 -1 m 257
 343 -1 l 257
 343 473 271 780 123 1204 c 257
 264 1252 l 257
 416 816 493 488 493 -1 c 257
EndSplineSet
PairPos2: "kernHorizontalKerninginArabiclookup3 subtable" uni0665 dx=-50 dy=0 dh=-50 dv=0 dx=0 dy=0 dh=0 dv=0
PairPos2: "kernHorizontalKerninginArabiclookup3 subtable" uni0660 dx=-50 dy=0 dh=-50 dv=0 dx=0 dy=0 dh=0 dv=0
EndChar

StartChar: uni0662
Encoding: 1634 1634 263
Width: 1046
VWidth: 0
GlyphClass: 2
Flags: HW
LayerCount: 2
Fore
SplineSet
565 799 m 256
 750 799 771 974 771 1252 c 257
 921 1252 l 257
 921 1006 914 649 572 649 c 256
 515 649 474 660 425 693 c 257
 469 468 493 258 493 0 c 257
 343 0 l 257
 343 482 241 824 123 1209 c 257
 266 1252 l 257
 345 989 403 799 565 799 c 256
EndSplineSet
EndChar

StartChar: uni0663
Encoding: 1635 1635 264
Width: 1383
VWidth: 0
GlyphClass: 2
Flags: HW
LayerCount: 2
Fore
SplineSet
836 1224 m 257
 829 1151 825 1090 825 1026 c 256
 825 892 832 804 958 804 c 256
 1080 804 1106 923 1106 1063 c 256
 1106 1119 1100 1178 1088 1236 c 257
 1234 1266 l 257
 1248 1200 1256 1136 1256 1064 c 256
 1256 855 1173 654 951 654 c 256
 828 654 779 712 735 798 c 257
 691 714 642 654 533 654 c 256
 491 654 461 662 428 682 c 257
 471 460 493 254 493 0 c 257
 343 0 l 257
 343 482 244 836 123 1208 c 257
 266 1252 l 257
 365 913 404 804 524 804 c 256
 666 804 681 962 697 1232 c 257
 836 1224 l 257
EndSplineSet
PairPos2: "kernHorizontalKerninginArabiclookup3 subtable" uni0668 dx=-50 dy=0 dh=-50 dv=0 dx=0 dy=0 dh=0 dv=0
EndChar

StartChar: uni0664
Encoding: 1636 1636 265
Width: 997
VWidth: 0
GlyphClass: 2
Flags: HW
LayerCount: 2
Fore
SplineSet
330 638 m 257
 245 681 186 798 186 914 c 256
 186 1176 423 1252 683 1252 c 257
 683 1102 l 257
 445 1102 336 1042 336 912 c 256
 336 788 456 722 690 722 c 257
 690 572 l 257
 438 572 275 440 275 291 c 256
 275 165 386 149 533 149 c 258
 816 149 l 257
 816 -1 l 257
 497 -1 l 258
 305 -1 125 63 125 275 c 256
 125 419 207 572 330 638 c 257
EndSplineSet
PairPos2: "kernHorizontalKerninginArabiclookup3 subtable" uni0666 dx=50 dy=0 dh=50 dv=0 dx=0 dy=0 dh=0 dv=0
EndChar

StartChar: uni0665
Encoding: 1637 1637 266
Width: 1196
VWidth: 0
GlyphClass: 2
Flags: HW
LayerCount: 2
Fore
SplineSet
496 1252 m 257
 746 1044 1071 738 1071 378 c 256
 1071 97 869 -11 601 -11 c 256
 343 -11 125 95 125 375 c 256
 125 623 260 824 496 1052 c 257
 463 1083 432 1112 400 1138 c 257
 496 1252 l 257
603 947 m 257
 380 734 275 567 275 375 c 256
 275 200 385 139 601 139 c 256
 824 139 921 194 921 378 c 256
 921 572 778 762 603 947 c 257
EndSplineSet
PairPos2: "kernHorizontalKerninginArabiclookup3 subtable" uni0661 dx=50 dy=0 dh=50 dv=0 dx=0 dy=0 dh=0 dv=0
PairPos2: "kernHorizontalKerninginArabiclookup3 subtable" uni0667 dx=-100 dy=0 dh=-100 dv=0 dx=0 dy=0 dh=0 dv=0
EndChar

StartChar: uni0666
Encoding: 1638 1638 267
Width: 1168
VWidth: 0
GlyphClass: 2
Flags: HW
LayerCount: 2
Fore
SplineSet
166 1106 m 257
 198 1252 l 257
 324 1224 475 1208 618 1208 c 256
 704 1208 789 1214 857 1226 c 257
 935 1157 l 257
 931 1062 929 972 929 883 c 256
 929 512 960 373 1046 27 c 257
 900 -9 l 257
 812 343 779 503 779 883 c 256
 779 943 780 1001 782 1066 c 257
 731 1060 676 1058 618 1058 c 256
 466 1058 305 1076 166 1106 c 257
EndSplineSet
PairPos2: "kernHorizontalKerninginArabiclookup3 subtable" uni0664 dx=-50 dy=0 dh=-50 dv=0 dx=0 dy=0 dh=0 dv=0
PairPos2: "kernHorizontalKerninginArabiclookup3 subtable" uni0665 dx=-175 dy=0 dh=-175 dv=0 dx=0 dy=0 dh=0 dv=0
PairPos2: "kernHorizontalKerninginArabiclookup3 subtable" uni0660 dx=-200 dy=0 dh=-200 dv=0 dx=0 dy=0 dh=0 dv=0
PairPos2: "kernHorizontalKerninginArabiclookup3 subtable" uni066B dx=-150 dy=0 dh=-150 dv=0 dx=0 dy=0 dh=0 dv=0
PairPos2: "kernHorizontalKerninginArabiclookup3 subtable" uni0668 dx=-200 dy=0 dh=-200 dv=0 dx=0 dy=0 dh=0 dv=0
EndChar

StartChar: uni0667
Encoding: 1639 1639 268
Width: 1315
VWidth: 0
GlyphClass: 2
Flags: HW
LayerCount: 2
Fore
SplineSet
1067 1253 m 257
 1186 1160 l 257
 946 850 817 592 726 0 c 257
 590 0 l 257
 500 582 374 842 129 1160 c 257
 248 1252 l 257
 443 998 564 783 658 380 c 257
 752 782 872 999 1067 1253 c 257
EndSplineSet
PairPos2: "kernHorizontalKerninginArabiclookup3 subtable" uni0660 dx=-100 dy=0 dh=-100 dv=0 dx=0 dy=0 dh=0 dv=0
PairPos2: "kernHorizontalKerninginArabiclookup3 subtable" uni0665 dx=-100 dy=0 dh=-100 dv=0 dx=0 dy=0 dh=0 dv=0
PairPos2: "kernHorizontalKerninginArabiclookup3 subtable" uni0668 dx=-150 dy=0 dh=-150 dv=0 dx=0 dy=0 dh=0 dv=0
PairPos2: "kernHorizontalKerninginArabiclookup3 subtable" uni066B dx=-125 dy=0 dh=-125 dv=0 dx=0 dy=0 dh=0 dv=0
EndChar

StartChar: uni0668
Encoding: 1640 1640 269
Width: 1315
VWidth: 0
GlyphClass: 2
Flags: HW
LayerCount: 2
Fore
SplineSet
248 -10 m 257
 129 83 l 257
 369 393 498 650 589 1242 c 257
 725 1242 l 257
 815 660 941 400 1186 82 c 257
 1066 -10 l 257
 871 244 751 460 657 863 c 257
 563 461 443 244 248 -10 c 257
EndSplineSet
PairPos2: "kernHorizontalKerninginArabiclookup3 subtable" uni0663 dx=-200 dy=0 dh=-200 dv=0 dx=0 dy=0 dh=0 dv=0
PairPos2: "kernHorizontalKerninginArabiclookup3 subtable" uni0662 dx=-175 dy=0 dh=-175 dv=0 dx=0 dy=0 dh=0 dv=0
PairPos2: "kernHorizontalKerninginArabiclookup3 subtable" uni0667 dx=-150 dy=0 dh=-150 dv=0 dx=0 dy=0 dh=0 dv=0
EndChar

StartChar: uni0669
Encoding: 1641 1641 270
Width: 1035
VWidth: 0
GlyphClass: 2
Flags: HW
LayerCount: 2
Fore
SplineSet
657 543 m 257
 607 532 556 526 501 526 c 256
 315 526 125 600 125 826 c 256
 125 1026 240 1252 467 1252 c 256
 730 1252 803 1018 803 800 c 256
 803 708 805 619 811 549 c 256
 820 271 851 189 912 50 c 257
 774 -10 l 257
 702 154 667 254 657 543 c 257
654 696 m 257
 653 800 l 258
 653 1006 601 1102 467 1102 c 256
 363 1102 275 988 275 826 c 256
 275 717 346 676 501 676 c 256
 556 676 604 683 654 696 c 257
EndSplineSet
PairPos2: "kernHorizontalKerninginArabiclookup3 subtable" uni066B dx=200 dy=0 dh=200 dv=0 dx=0 dy=0 dh=0 dv=0
PairPos2: "kernHorizontalKerninginArabiclookup3 subtable" uni0668 dx=-150 dy=0 dh=-150 dv=0 dx=0 dy=0 dh=0 dv=0
PairPos2: "kernHorizontalKerninginArabiclookup3 subtable" uni0665 dx=-50 dy=0 dh=-50 dv=0 dx=0 dy=0 dh=0 dv=0
EndChar

StartChar: uni066B
Encoding: 1643 1643 272
Width: 787
VWidth: 0
GlyphClass: 2
Flags: HW
LayerCount: 2
Fore
SplineSet
240 -306 m 257
 99 -252 l 257
 556 915 l 257
 697 861 l 257
 240 -306 l 257
EndSplineSet
PairPos2: "kernHorizontalKerninginArabiclookup3 subtable" uni0663 dx=-150 dy=0 dh=-150 dv=0 dx=0 dy=0 dh=0 dv=0
PairPos2: "kernHorizontalKerninginArabiclookup3 subtable" uni0662 dx=-100 dy=0 dh=-100 dv=0 dx=0 dy=0 dh=0 dv=0
PairPos2: "kernHorizontalKerninginArabiclookup3 subtable" uni0667 dx=-100 dy=0 dh=-100 dv=0 dx=0 dy=0 dh=0 dv=0
PairPos2: "kernHorizontalKerninginArabiclookup3 subtable" uni06F7 dx=-100 dy=0 dh=-100 dv=0 dx=0 dy=0 dh=0 dv=0
PairPos2: "kernHorizontalKerninginArabiclookup3 subtable" uni06F0 dx=-50 dy=0 dh=-50 dv=0 dx=0 dy=0 dh=0 dv=0
PairPos2: "kernHorizontalKerninginArabiclookup3 subtable" uni06F3 dx=-75 dy=0 dh=-75 dv=0 dx=0 dy=0 dh=0 dv=0
PairPos2: "kernHorizontalKerninginArabiclookup3 subtable" uni06F2 dx=-100 dy=0 dh=-100 dv=0 dx=0 dy=0 dh=0 dv=0
PairPos2: "kernHorizontalKerninginArabiclookup3 subtable" uni066B dx=-50 dy=0 dh=-50 dv=0 dx=0 dy=0 dh=0 dv=0
EndChar

StartChar: uni066C
Encoding: 1644 1644 273
Width: 587
VWidth: 0
GlyphClass: 2
Flags: HW
LayerCount: 2
Fore
SplineSet
179 759 m 257
 121 828 l 257
 188 902 277 1039 300 1117 c 257
 238 1117 146 1170 146 1262 c 256
 146 1340 204 1410 284 1410 c 256
 366 1410 441 1359 441 1233 c 256
 441 1100 288 867 179 759 c 257
EndSplineSet
EndChar

StartChar: uni066D
Encoding: 1645 1645 274
Width: 910
VWidth: 0
GlyphClass: 2
Flags: HW
LayerCount: 2
Fore
SplineSet
509 604 m 257
 401 604 l 257
 401 922 l 257
 126 764 l 257
 71 857 l 257
 346 1017 l 257
 71 1176 l 257
 126 1270 l 257
 401 1111 l 257
 401 1428 l 257
 509 1428 l 257
 509 1111 l 257
 784 1270 l 257
 839 1176 l 257
 564 1017 l 257
 839 857 l 257
 784 764 l 257
 509 922 l 257
 509 604 l 257
EndSplineSet
EndChar

StartChar: uni06F4
Encoding: 1780 1780 300
Width: 1179
VWidth: 0
GlyphClass: 2
Flags: HW
LayerCount: 2
Fore
SplineSet
436 638 m 257
 473 422 493 223 493 0 c 257
 343 0 l 257
 343 471 246 820 127 1207 c 257
 270 1252 l 257
 306 1166 346 1048 374 940 c 257
 407 1144 561 1270 741 1270 c 256
 812 1270 893 1244 962 1208 c 257
 898 1074 l 257
 849 1105 792 1120 734 1120 c 256
 601 1120 480 1015 480 829 c 256
 480 717 608 679 744 679 c 256
 824 679 906 691 972 714 c 257
 998 572 l 257
 919 545 835 532 756 532 c 256
 626 532 514 564 436 638 c 257
EndSplineSet
PairPos2: "kernHorizontalKerninginArabiclookup3 subtable" uni06F0 dx=-25 dy=0 dh=-25 dv=0 dx=0 dy=0 dh=0 dv=0
PairPos2: "kernHorizontalKerninginArabiclookup3 subtable" uni06F8 dx=-50 dy=0 dh=-50 dv=0 dx=0 dy=0 dh=0 dv=0
EndChar

StartChar: uni06F5
Encoding: 1781 1781 301
Width: 1276
VWidth: 0
GlyphClass: 2
Flags: HW
LayerCount: 2
Fore
SplineSet
646 80 m 257
 591 20 514 -10 434 -10 c 256
 272 -10 125 111 125 356 c 256
 125 565 238 810 530 1054 c 257
 498 1080 465 1105 430 1130 c 257
 516 1252 l 257
 577 1210 636 1165 690 1117 c 256
 973 869 1151 601 1151 341 c 256
 1151 106 1009 -10 852 -10 c 256
 774 -10 698 22 646 80 c 257
583 308 m 257
 713 308 l 257
 713 265 l 258
 713 186 774 140 848 140 c 256
 918 140 1001 173 1001 341 c 256
 1001 521 875 734 645 954 c 257
 367 732 275 517 275 356 c 256
 275 176 365 140 439 140 c 256
 517 140 583 189 583 265 c 258
 583 308 l 257
EndSplineSet
PairPos2: "kernHorizontalKerninginArabiclookup3 subtable" uni06F1 dx=50 dy=0 dh=50 dv=0 dx=0 dy=0 dh=0 dv=0
PairPos2: "kernHorizontalKerninginArabiclookup3 subtable" uni06F2 dx=-25 dy=0 dh=-25 dv=0 dx=0 dy=0 dh=0 dv=0
PairPos2: "kernHorizontalKerninginArabiclookup3 subtable" uni06F3 dx=-25 dy=0 dh=-25 dv=0 dx=0 dy=0 dh=0 dv=0
PairPos2: "kernHorizontalKerninginArabiclookup3 subtable" uni06F7 dx=-100 dy=0 dh=-100 dv=0 dx=0 dy=0 dh=0 dv=0
PairPos2: "kernHorizontalKerninginArabiclookup3 subtable" uni06F9 dx=-75 dy=0 dh=-75 dv=0 dx=0 dy=0 dh=0 dv=0
EndChar

StartChar: uni06F6
Encoding: 1782 1782 302
Width: 1034
VWidth: 0
GlyphClass: 2
Flags: HW
LayerCount: 2
Fore
SplineSet
565 662 m 256
 681 662 769 703 845 751 c 257
 944 632 l 257
 671 447 429 247 256 -10 c 257
 126 64 l 257
 251 251 385 377 548 519 c 257
 351 520 131 621 131 856 c 256
 131 1086 298 1252 514 1252 c 256
 646 1252 739 1192 807 1129 c 257
 704 1020 l 257
 660 1064 598 1102 514 1102 c 256
 384 1102 281 1004 281 856 c 256
 281 726 410 662 565 662 c 256
EndSplineSet
EndChar

StartChar: uniE000
Encoding: 57344 57344 306
Width: 120
VWidth: 0
GlyphClass: 2
Flags: HW
LayerCount: 2
Fore
SplineSet
0 149 m 258
 120 149 l 257
 120 -1 l 257
 0 -1 l 258
 -42 -1 -75 32 -75 74 c 256
 -75 116 -42 149 0 149 c 258
EndSplineSet
EndChar

StartChar: uniE001
Encoding: 57345 57345 307
Width: 320
VWidth: 0
GlyphClass: 2
Flags: HW
LayerCount: 2
Fore
SplineSet
0 149 m 258
 320 149 l 257
 320 -1 l 257
 0 -1 l 258
 -42 -1 -75 32 -75 74 c 256
 -75 116 -42 149 0 149 c 258
EndSplineSet
EndChar

StartChar: uniE002
Encoding: 57346 57346 308
Width: 450
VWidth: 0
GlyphClass: 2
Flags: HW
LayerCount: 2
Fore
SplineSet
0 149 m 258
 450 149 l 257
 450 -1 l 257
 0 -1 l 258
 -42 -1 -75 32 -75 74 c 256
 -75 116 -42 149 0 149 c 258
EndSplineSet
EndChar

StartChar: uniE003
Encoding: 57347 57347 309
Width: 1762
VWidth: 0
GlyphClass: 2
Flags: HW
LayerCount: 2
Fore
SplineSet
1580 1454 m 257
 1655 1376 l 257
 182 -45 l 257
 107 33 l 257
 1580 1454 l 257
EndSplineSet
EndChar

StartChar: uniE004
Encoding: 57348 57348 310
Width: 1088
VWidth: 0
GlyphClass: 2
Flags: HW
LayerCount: 2
Fore
SplineSet
188 -40 m 257
 102 27 l 257
 900 1052 l 257
 986 985 l 257
 188 -40 l 257
EndSplineSet
EndChar

StartChar: uniE005
Encoding: 57349 57349 311
Width: 1462
VWidth: 0
GlyphClass: 2
Flags: HW
LayerCount: 2
Fore
SplineSet
1358 -1 m 257
 1275 -70 l 257
 796 501 l 257
 880 571 l 257
 1358 -1 l 257
EndSplineSet
EndChar

StartChar: uniE006
Encoding: 57350 57350 312
Width: 1146
VWidth: 0
GlyphClass: 2
Flags: HW
LayerCount: 2
Fore
SplineSet
228 94 m 257
 228 204 l 257
 918 204 l 257
 918 94 l 257
 228 94 l 257
228 420 m 257
 228 530 l 257
 918 530 l 257
 918 420 l 257
 228 420 l 257
EndSplineSet
EndChar

StartChar: uniE007
Encoding: 57351 57351 313
Width: 869
VWidth: 0
GlyphClass: 2
Flags: HW
LayerCount: 2
Fore
SplineSet
580 1560 m 257
 550 1574 507 1589 472 1589 c 256
 385 1589 332 1529 332 1480 c 256
 332 1412 375 1395 445 1374 c 256
 505 1355 594 1325 594 1225 c 256
 594 1108 458 1049 344 1049 c 256
 278 1049 221 1061 172 1084 c 257
 204 1152 l 257
 241 1134 287 1124 344 1124 c 256
 448 1124 520 1176 520 1224 c 256
 520 1266 491 1281 423 1302 c 256
 356 1323 258 1359 258 1481 c 256
 258 1581 353 1664 472 1664 c 256
 526 1664 570 1646 610 1629 c 257
 580 1560 l 257
EndSplineSet
EndChar

StartChar: uniE008
Encoding: 57352 57352 314
Width: 1454
VWidth: 0
GlyphClass: 2
Flags: HW
LayerCount: 2
Fore
SplineSet
533 1136 m 256
 533 1216 472 1285 392 1285 c 256
 312 1285 250 1216 250 1136 c 256
 250 1056 313 992 392 992 c 256
 470 992 533 1056 533 1136 c 256
637 1136 m 256
 637 1000 530 888 392 888 c 256
 254 888 145 1000 145 1136 c 256
 145 1266 248 1390 392 1390 c 256
 536 1390 637 1266 637 1136 c 256
EndSplineSet
EndChar

StartChar: uniE009
Encoding: 57353 57353 315
Width: 1146
VWidth: 0
GlyphClass: 2
Flags: HW
LayerCount: 2
Fore
SplineSet
519 1620 m 257
 627 1620 l 257
 627 -212 l 257
 519 -212 l 257
 519 1620 l 257
EndSplineSet
EndChar

StartChar: uniE00A
Encoding: 57354 57354 316
Width: 1214
VWidth: 0
GlyphClass: 2
Flags: HW
LayerCount: 2
Fore
SplineSet
92 462 m 257
 92 572 l 257
 702 572 l 257
 702 462 l 257
 92 462 l 257
EndSplineSet
EndChar

StartChar: uniE00B
Encoding: 57355 57355 317
Width: 1108
VWidth: 0
GlyphClass: 2
Flags: HW
LayerCount: 2
Fore
SplineSet
870 582 m 257
 816 478 l 257
 764 491 701 500 635 500 c 256
 443 500 272 427 272 278 c 256
 272 172 341 110 476 110 c 256
 622 110 761 204 761 360 c 257
 881 360 l 257
 881 112 662 -18 456 -18 c 256
 264 -18 126 95 126 280 c 256
 126 536 415 612 635 612 c 256
 721 612 800 600 870 582 c 257
EndSplineSet
EndChar

StartChar: uniE00C
Encoding: 57356 57356 318
Width: 1536
VWidth: 0
GlyphClass: 2
Flags: HW
LayerCount: 2
Fore
SplineSet
798 696 m 257
 798 872 886 1063 1110 1063 c 256
 1361 1063 1421 862 1421 696 c 258
 1421 -19 l 257
 1271 -19 l 257
 1271 696 l 258
 1271 826 1197 931 1057 931 c 256
 921 931 843 810 843 696 c 257
 798 696 l 257
EndSplineSet
EndChar

StartChar: uniE00D
Encoding: 57357 57357 319
Width: 1068
VWidth: 0
GlyphClass: 2
Flags: HW
LayerCount: 2
Fore
SplineSet
215 626 m 257
 215 884 341 1062 589 1062 c 256
 848 1062 948 866 948 654 c 258
 948 0 l 257
 798 0 l 257
 798 641 l 258
 798 825 692 930 536 930 c 256
 369 930 275 820 275 626 c 257
 215 626 l 257
EndSplineSet
EndChar

StartChar: uniE00E
Encoding: 57358 57358 320
Width: 754
VWidth: 0
GlyphClass: 2
Flags: HW
LayerCount: 2
Fore
SplineSet
275 518 m 257
 155 518 l 257
 155 765 276 1043 596 1043 c 258
 666 1043 l 257
 666 911 l 257
 581 911 l 258
 377 911 275 738 275 518 c 257
EndSplineSet
EndChar

StartChar: uniE00F
Encoding: 57359 57359 321
Width: 1158
VWidth: 0
GlyphClass: 2
Flags: HW
LayerCount: 2
Fore
SplineSet
656 1062 m 256
 962 1062 1088 782 1088 520 c 256
 1088 258 961 -20 656 -20 c 256
 358 -20 210 236 210 520 c 256
 210 803 358 1062 656 1062 c 256
616 933 m 256
 408 933 295 754 295 520 c 256
 295 285 408 108 616 108 c 256
 824 108 938 285 938 520 c 256
 938 754 824 933 616 933 c 256
EndSplineSet
EndChar

StartChar: uniE020
Encoding: 57376 57376 331
Width: 878
VWidth: 0
GlyphClass: 2
Flags: HW
LayerCount: 2
Fore
SplineSet
682 617 m 257
 598 548 l 257
 563 589 511 626 431 626 c 256
 337 626 239 547 239 413 c 256
 239 309 333 267 491 267 c 257
 733 366 l 257
 774 266 l 257
 146 6 l 257
 104 107 l 257
 317 194 l 257
 214 223 129 284 129 409 c 256
 129 606 275 734 431 734 c 256
 549 734 633 676 682 617 c 257
EndSplineSet
EndChar

StartChar: uniE021
Encoding: 57377 57377 332
Width: 560
VWidth: 0
GlyphClass: 2
Flags: HW
LayerCount: 2
Fore
SplineSet
562 1525 m 257
 650 1485 l 257
 591 1354 522 1306 419 1306 c 256
 373 1306 318 1320 250 1344 c 256
 203 1361 167 1373 136 1373 c 256
 74 1373 33 1320 -10 1258 c 257
 -90 1308 l 257
 -20 1440 64 1492 146 1492 c 256
 186 1492 211 1489 273 1466 c 256
 353 1436 395 1421 434 1421 c 256
 485 1421 526 1455 562 1525 c 257
355 1123 m 257
 355 19 l 257
 205 19 l 257
 205 1123 l 257
 355 1123 l 257
EndSplineSet
EndChar

StartChar: uniE022
Encoding: 57378 57378 333
Width: 500
VWidth: 0
GlyphClass: 2
Flags: HW
LayerCount: 2
Fore
SplineSet
325 19 m 257
 175 19 l 257
 175 1228 l 257
 325 1228 l 257
 325 19 l 257
EndSplineSet
EndChar

StartChar: uniE023
Encoding: 57379 57379 334
Width: 1360
VWidth: 0
GlyphClass: 2
Flags: HW
LayerCount: 2
Fore
SplineSet
1226 -471 m 257
 1282 -610 l 257
 1128 -671 971 -713 758 -713 c 256
 426 -713 101 -590 101 -227 c 256
 101 206 558 390 1030 526 c 257
 605 686 l 258
 567 698 534 702 507 702 c 256
 384 702 323 615 301 425 c 257
 151 442 l 257
 176 668 276 852 507 852 c 256
 553 852 602 846 654 827 c 258
 1246 602 l 257
 1246 435 l 257
 686 287 251 117 251 -227 c 256
 251 -467 471 -562 764 -562 c 256
 948 -562 1087 -525 1226 -471 c 257
EndSplineSet
EndChar

StartChar: uniE024
Encoding: 57380 57380 335
Width: 936
VWidth: 0
GlyphClass: 2
Flags: HW
LayerCount: 2
Fore
SplineSet
833 326 m 256
 833 74 571 0 352 0 c 256
 265 0 173 14 88 36 c 257
 125 179 l 257
 199 160 275 150 354 150 c 256
 543 150 684 208 684 332 c 256
 684 469 586 623 374 802 c 257
 470 916 l 257
 697 725 833 538 833 326 c 256
EndSplineSet
EndChar

StartChar: uniE025
Encoding: 57381 57381 336
Width: 834
VWidth: 0
GlyphClass: 2
Flags: HW
LayerCount: 2
Fore
SplineSet
482 554 m 257
 621 610 l 257
 688 443 731 279 731 130 c 256
 731 -172 508 -397 164 -522 c 257
 113 -380 l 257
 412 -271 581 -106 581 130 c 256
 581 251 543 401 482 554 c 257
EndSplineSet
EndChar

StartChar: uniE026
Encoding: 57382 57382 337
Width: 2378
VWidth: 0
GlyphClass: 2
Flags: HW
LayerCount: 2
Fore
SplineSet
1963 -1 m 256
 1869 -1 1767 40 1708 130 c 257
 1654 48 1577 -1 1473 -1 c 256
 1418 -1 1362 11 1308 54 c 257
 1292 -325 1018 -504 684 -504 c 256
 369 -504 103 -339 103 18 c 256
 103 169 167 389 260 556 c 257
 390 488 l 257
 304 330 253 132 253 18 c 256
 253 -222 407 -354 684 -354 c 256
 985 -354 1165 -197 1165 76 c 256
 1165 197 1119 339 1028 564 c 257
 1169 618 l 257
 1312 210 1343 150 1473 150 c 256
 1562 150 1626 210 1643 359 c 258
 1669 582 l 257
 1812 568 l 257
 1795 402 l 258
 1793 380 1792 359 1792 339 c 256
 1792 200 1870 150 1962 150 c 256
 2082 150 2125 240 2125 382 c 256
 2125 484 2097 607 2069 695 c 257
 2213 740 l 257
 2247 631 2275 505 2275 386 c 256
 2275 204 2201 -1 1963 -1 c 256
EndSplineSet
EndChar

StartChar: uniE027
Encoding: 57383 57383 338
Width: 2322
VWidth: 0
GlyphClass: 2
Flags: HW
LayerCount: 2
Fore
SplineSet
1671 -1 m 256
 1550 -1 1418 26 1312 68 c 257
 1295 -320 1027 -504 684 -504 c 256
 369 -504 103 -339 103 18 c 256
 103 169 167 389 260 556 c 257
 390 488 l 257
 304 330 253 132 253 18 c 256
 253 -222 407 -354 684 -354 c 256
 985 -354 1165 -197 1165 76 c 256
 1165 197 1119 339 1028 564 c 257
 1169 618 l 257
 1220 505 1260 389 1292 272 c 257
 1455 572 1674 698 1864 698 c 256
 2055 698 2218 570 2218 366 c 256
 2218 95 1919 -1 1671 -1 c 256
1416 189 m 257
 1494 163 1584 149 1671 149 c 256
 1913 149 2068 239 2068 366 c 256
 2068 475 1988 548 1864 548 c 256
 1736 548 1562 464 1416 189 c 257
EndSplineSet
EndChar

StartChar: uniE028
Encoding: 57384 57384 339
Width: 1515
VWidth: 0
GlyphClass: 2
Flags: HW
LayerCount: 2
Fore
SplineSet
564 173 m 257
 564 150 l 257
 1167 155 1240 284 1240 425 c 256
 1240 525 1164 589 1055 589 c 256
 929 589 690 481 564 173 c 257
403 150 m 257
 403 1228 l 257
 553 1228 l 257
 553 425 l 257
 704 644 911 739 1066 739 c 256
 1224 739 1390 630 1390 433 c 256
 1390 155 1170 0 478 0 c 258
 92 0 l 257
 92 150 l 257
 403 150 l 257
EndSplineSet
EndChar

StartChar: uniE029
Encoding: 57385 57385 340
Width: 1299
VWidth: 0
GlyphClass: 2
Flags: HW
LayerCount: 2
Fore
SplineSet
957 943 m 257
 843 847 l 257
 793 909 714 970 596 970 c 256
 456 970 329 858 329 677 c 256
 329 537 486 476 696 476 c 256
 789 476 887 491 974 506 c 257
 999 351 l 257
 604 308 256 168 256 -172 c 256
 256 -410 486 -541 769 -541 c 256
 903 -541 1037 -512 1136 -470 c 257
 1196 -608 l 257
 1076 -662 924 -694 770 -694 c 256
 432 -694 106 -526 106 -178 c 256
 106 85 266 258 470 360 c 257
 321 398 179 490 179 668 c 256
 179 936 377 1120 596 1120 c 256
 770 1120 883 1030 957 943 c 257
EndSplineSet
EndChar

StartChar: uniE02A
Encoding: 57386 57386 341
Width: 811
VWidth: 0
GlyphClass: 2
Flags: HW
LayerCount: 2
Fore
SplineSet
0 150 m 258
 811 150 l 257
 811 0 l 257
 0 0 l 258
 -42 0 -75 33 -75 75 c 256
 -75 117 -42 150 0 150 c 258
EndSplineSet
EndChar

StartChar: uniE02B
Encoding: 57387 57387 342
Width: 1625
VWidth: 0
GlyphClass: 2
Flags: HW
LayerCount: 2
Fore
SplineSet
1290 1247 m 257
 1440 1247 l 257
 1440 517 l 258
 1440 342 1409 221 1335 140 c 256
 1241 36 1077 0 799 0 c 256
 477 0 103 38 103 392 c 256
 103 477 120 575 138 652 c 257
 284 616 l 257
 268 549 253 457 253 392 c 256
 253 196 454 150 802 150 c 256
 1048 150 1166 168 1228 236 c 256
 1277 291 1290 379 1290 517 c 258
 1290 1247 l 257
EndSplineSet
EndChar

StartChar: uniE02C
Encoding: 57388 57388 343
Width: 1268
VWidth: 0
GlyphClass: 2
Flags: HW
LayerCount: 2
Fore
SplineSet
982 1228 m 257
 1132 1228 l 257
 1132 45 l 258
 1132 -317 934 -504 602 -504 c 256
 303 -504 103 -332 103 -46 c 256
 103 70 132 205 193 354 c 257
 328 296 l 257
 276 161 252 42 252 -52 c 256
 252 -245 376 -354 618 -354 c 256
 862 -354 982 -240 982 45 c 258
 982 1228 l 257
EndSplineSet
EndChar

StartChar: uniE02D
Encoding: 57389 57389 344
Width: 1199
VWidth: 0
GlyphClass: 2
Flags: HW
LayerCount: 2
Fore
SplineSet
374 231 m 257
 395 415 486 695 760 695 c 256
 977 695 1094 492 1094 301 c 256
 1094 84 943 0 793 0 c 256
 692 0 590 28 513 58 c 256
 467 76 444 84 401 84 c 256
 316 84 253 22 253 -100 c 258
 253 -785 l 257
 103 -785 l 257
 103 -100 l 258
 103 70 206 217 374 231 c 257
523 213 m 257
 607 189 701 150 793 150 c 256
 887 150 944 180 944 298 c 256
 944 442 864 545 760 545 c 256
 616 545 541 383 523 213 c 257
EndSplineSet
EndChar

StartChar: uniE02E
Encoding: 57390 57390 345
Width: 869
VWidth: 0
GlyphClass: 2
Flags: HW
LayerCount: 2
Fore
SplineSet
435 150 m 256
 550 150 608 208 608 307 c 256
 608 411 538 534 435 636 c 257
 333 534 261 411 261 307 c 256
 261 208 319 150 435 150 c 256
435 0 m 256
 246 0 116 126 116 305 c 256
 116 522 281 706 435 838 c 257
 590 705 753 522 753 305 c 256
 753 127 625 0 435 0 c 256
EndSplineSet
EndChar

StartChar: uniE02F
Encoding: 57391 57391 346
Width: 928
VWidth: 0
GlyphClass: 2
Flags: HW
LayerCount: 2
Fore
SplineSet
660 21 m 257
 606 6 551 -2 488 -2 c 256
 309 -2 137 81 137 302 c 256
 137 499 267 724 470 724 c 256
 790 724 825 269 825 97 c 256
 825 -225 580 -409 163 -518 c 257
 119 -376 l 257
 461 -289 628 -153 660 21 c 257
672 177 m 257
 658 379 594 574 470 574 c 256
 383 574 287 454 287 302 c 256
 287 188 348 148 488 148 c 256
 557 148 612 158 672 177 c 257
EndSplineSet
EndChar

StartChar: uniE030
Encoding: 57392 57392 347
Width: 0
VWidth: 0
GlyphClass: 2
Flags: H
LayerCount: 2
Fore
SplineSet
-230 1866 m 256
 -230 1808 -211 1756 -182 1713 c 257
 -242 1674 l 257
 -279 1730 -302 1795 -302 1867 c 256
 -302 2057 -148 2210 42 2210 c 257
 42 2140 l 257
 -108 2140 -230 2017 -230 1866 c 256
EndSplineSet
EndChar

StartChar: uniE031
Encoding: 57393 57393 348
Width: 0
VWidth: 0
GlyphClass: 2
Flags: H
LayerCount: 2
Fore
SplineSet
185 1753 m 257
 216 1685 l 257
 -185 1503 l 257
 -216 1571 l 257
 185 1753 l 257
EndSplineSet
EndChar

StartChar: uniE032
Encoding: 57394 57394 349
Width: 0
VWidth: 0
GlyphClass: 2
Flags: H
LayerCount: 2
Fore
SplineSet
32 1699 m 257
 -36 1727 -109 1778 -109 1861 c 256
 -109 1953 -26 2022 52 2022 c 256
 148 2022 191 1931 191 1870 c 256
 191 1674 -19 1548 -172 1505 c 257
 -194 1577 l 257
 -114 1600 -28 1643 32 1699 c 257
82 1760 m 257
 104 1794 116 1832 116 1870 c 256
 116 1906 92 1946 52 1946 c 256
 14 1946 -34 1905 -34 1862 c 256
 -34 1822 9 1785 82 1760 c 257
EndSplineSet
EndChar

StartChar: uniE033
Encoding: 57395 57395 350
Width: 0
VWidth: 0
GlyphClass: 2
Flags: H
LayerCount: 2
Fore
SplineSet
178 1695 m 256
 178 1753 167 1796 149 1846 c 257
 219 1871 l 257
 239 1816 254 1763 254 1695 c 256
 254 1599 197 1536 124 1536 c 256
 76 1536 30 1564 0 1611 c 257
 -31 1561 -76 1536 -124 1536 c 256
 -197 1536 -254 1599 -254 1695 c 256
 -254 1763 -239 1816 -219 1871 c 257
 -149 1846 l 257
 -167 1796 -178 1753 -178 1695 c 256
 -178 1628 -148 1610 -116 1610 c 256
 -82 1610 -38 1641 -38 1704 c 258
 -38 1778 l 257
 38 1778 l 257
 38 1704 l 258
 38 1641 81 1610 116 1610 c 256
 148 1610 178 1628 178 1695 c 256
EndSplineSet
EndChar

StartChar: uniE034
Encoding: 57396 57396 351
Width: 0
VWidth: 0
GlyphClass: 2
Flags: H
LayerCount: 2
Fore
SplineSet
0 1848 m 256
 -65 1848 -116 1797 -116 1732 c 256
 -116 1667 -65 1616 0 1616 c 256
 64 1616 116 1668 116 1732 c 256
 116 1796 65 1848 0 1848 c 256
0 1923 m 256
 105 1923 192 1838 192 1732 c 256
 192 1626 106 1541 0 1541 c 256
 -107 1541 -192 1627 -192 1732 c 256
 -192 1837 -107 1923 0 1923 c 256
EndSplineSet
EndChar

StartChar: uniE035
Encoding: 57397 57397 352
Width: 0
VWidth: 0
GlyphClass: 2
Flags: H
LayerCount: 2
Fore
SplineSet
-254 1536 m 257
 -226 1594 -170 1659 -87 1659 c 256
 -51 1659 -14 1645 21 1618 c 256
 47 1598 69 1592 86 1592 c 256
 125 1592 162 1628 184 1678 c 257
 254 1648 l 257
 227 1582 170 1517 86 1517 c 256
 49 1517 11 1530 -25 1558 c 256
 -50 1577 -71 1584 -87 1584 c 256
 -127 1584 -164 1548 -186 1503 c 257
 -254 1536 l 257
EndSplineSet
EndChar

StartChar: uniE036
Encoding: 57398 57398 353
Width: 0
VWidth: 0
GlyphClass: 2
Flags: H
LayerCount: 2
Fore
SplineSet
-185 1503 m 257
 -216 1571 l 257
 -114 1618 l 257
 -156 1668 -178 1726 -178 1781 c 256
 -178 1879 -106 1964 22 1964 c 258
 107 1964 l 257
 107 1890 l 257
 22 1890 l 258
 -68 1890 -103 1839 -103 1781 c 256
 -103 1740 -83 1689 -42 1650 c 257
 185 1753 l 257
 216 1685 l 257
 -185 1503 l 257
EndSplineSet
EndChar

StartChar: uniE037
Encoding: 57399 57399 354
Width: 0
VWidth: 0
GlyphClass: 2
Flags: H
LayerCount: 2
Fore
SplineSet
-238 1826 m 257
 -178 1871 l 257
 0 1634 l 257
 178 1871 l 257
 238 1826 l 257
 0 1509 l 257
 -238 1826 l 257
EndSplineSet
EndChar

StartChar: uniE038
Encoding: 57400 57400 355
Width: 1782
VWidth: 0
GlyphClass: 2
Flags: HW
LayerCount: 2
Fore
SplineSet
1629 711 m 257
 1657 619 1676 516 1676 421 c 256
 1676 75 1340 0 891 0 c 256
 442 0 106 75 106 421 c 256
 106 516 125 619 153 711 c 257
 298 669 l 257
 274 590 256 499 256 424 c 256
 256 209 477 150 891 150 c 256
 1305 150 1526 209 1526 424 c 256
 1526 499 1508 590 1484 669 c 257
 1629 711 l 257
EndSplineSet
EndChar

StartChar: uniE039
Encoding: 57401 57401 356
Width: 1415
VWidth: 0
GlyphClass: 2
Flags: HW
LayerCount: 2
Fore
SplineSet
1158 178 m 257
 1144 380 1081 575 957 575 c 256
 870 575 774 455 774 303 c 256
 774 189 835 149 975 149 c 256
 1044 149 1098 159 1158 178 c 257
1159 24 m 257
 1103 9 1041 -1 975 -1 c 256
 796 -1 624 82 624 303 c 256
 624 500 754 725 957 725 c 256
 1276 725 1312 276 1312 98 c 256
 1312 -302 1037 -504 684 -504 c 256
 369 -504 103 -339 103 18 c 256
 103 141 147 298 211 444 c 257
 344 383 l 257
 285 249 253 109 253 18 c 256
 253 -222 407 -354 684 -354 c 256
 962 -354 1139 -219 1159 24 c 257
EndSplineSet
EndChar

StartChar: uniE03A
Encoding: 57402 57402 357
Width: 0
VWidth: 0
GlyphClass: 2
Flags: H
LayerCount: 2
Fore
SplineSet
-38 1874 m 257
 38 1874 l 257
 38 1540 l 257
 -38 1540 l 257
 -38 1874 l 257
EndSplineSet
EndChar

StartChar: uniE03B
Encoding: 57403 57403 358
Width: 1752
VWidth: 0
GlyphClass: 2
Flags: HW
LayerCount: 2
Fore
SplineSet
1496 535 m 257
 1482 737 1418 932 1294 932 c 256
 1207 932 1111 812 1111 660 c 256
 1111 546 1172 506 1312 506 c 256
 1381 506 1436 516 1496 535 c 257
1649 455 m 256
 1649 77 1305 0 871 0 c 256
 366 0 106 76 106 418 c 256
 106 513 126 614 154 706 c 257
 299 664 l 257
 275 585 256 497 256 422 c 256
 256 203 409 150 873 150 c 256
 1277 150 1469 213 1499 389 c 257
 1437 372 1372 362 1302 362 c 256
 1119 362 961 445 961 660 c 256
 961 857 1091 1082 1294 1082 c 256
 1614 1082 1649 627 1649 455 c 256
EndSplineSet
EndChar

StartChar: uniE03C
Encoding: 57404 57404 359
Width: 1848
VWidth: 0
GlyphClass: 2
Flags: HW
LayerCount: 2
Fore
SplineSet
154 706 m 257
 299 664 l 257
 275 585 256 497 256 422 c 256
 256 202 426 150 798 150 c 256
 1119 150 1316 194 1316 352 c 256
 1316 496 1098 701 869 866 c 257
 869 1032 l 257
 1105 1186 1411 1310 1694 1371 c 257
 1726 1224 l 257
 1494 1173 1234 1076 1032 956 c 257
 1032 930 l 257
 1256 763 1466 559 1466 344 c 256
 1466 39 1107 0 787 0 c 256
 383 0 106 77 106 418 c 256
 106 513 126 614 154 706 c 257
EndSplineSet
EndChar

StartChar: uniE03D
Encoding: 57405 57405 360
Width: 1512
VWidth: 0
GlyphClass: 2
Flags: HW
LayerCount: 2
Fore
SplineSet
1257 68 m 256
 1257 227 1172 419 1102 561 c 257
 1236 624 l 257
 1309 476 1408 271 1408 62 c 256
 1408 -322 1063 -504 729 -504 c 256
 403 -504 104 -324 104 28 c 256
 104 217 182 426 258 572 c 257
 386 496 l 257
 320 369 254 188 254 27 c 256
 254 -223 444 -354 724 -354 c 256
 1019 -354 1257 -204 1257 68 c 256
EndSplineSet
EndChar

StartChar: uniE03E
Encoding: 57406 57406 361
Width: 1449
VWidth: 0
GlyphClass: 2
Flags: HW
LayerCount: 2
Fore
SplineSet
1308 708 m 257
 1267 564 l 257
 1212 581 1152 591 1095 591 c 256
 861 591 754 472 754 312 c 256
 754 177 848 159 1031 150 c 256
 1182 143 1344 104 1344 -124 c 256
 1344 -400 1054 -504 731 -504 c 256
 407 -504 140 -368 140 -10 c 256
 140 135 174 306 204 404 c 257
 348 358 l 257
 322 270 290 116 290 -10 c 256
 290 -254 443 -354 741 -354 c 256
 1026 -354 1194 -272 1194 -128 c 256
 1194 -21 1148 -6 1003 1 c 256
 804 11 604 52 604 295 c 256
 604 559 778 741 1098 741 c 256
 1164 741 1239 730 1308 708 c 257
EndSplineSet
EndChar

StartChar: uniE03F
Encoding: 57407 57407 362
Width: 1864
VWidth: 0
GlyphClass: 2
Flags: HW
LayerCount: 2
Fore
SplineSet
1864 150 m 257
 1864 0 l 257
 1863 0 l 257
 1637 0 1522 92 1438 230 c 257
 1361 26 1061 0 787 0 c 256
 383 0 106 77 106 418 c 256
 106 513 126 614 154 706 c 257
 299 664 l 257
 275 585 256 497 256 422 c 256
 256 202 426 150 798 150 c 256
 1119 150 1316 194 1316 352 c 256
 1316 496 1098 701 869 866 c 257
 869 1032 l 257
 1105 1186 1411 1310 1694 1371 c 257
 1726 1224 l 257
 1494 1173 1234 1076 1032 956 c 257
 1032 930 l 257
 1296 742 1410 565 1492 408 c 256
 1580 241 1639 150 1863 150 c 257
 1864 150 l 257
EndSplineSet
EndChar

StartChar: uniE040
Encoding: 57408 57408 363
Width: 1660
VWidth: 0
GlyphClass: 2
Flags: HW
LayerCount: 2
Fore
SplineSet
258 572 m 257
 387 496 l 257
 321 368 254 190 254 28 c 256
 254 -222 442 -354 724 -354 c 256
 1019 -354 1257 -204 1257 68 c 256
 1257 227 1172 419 1102 561 c 257
 1235 622 l 257
 1367 316 l 258
 1417 199 1475 150 1659 150 c 258
 1660 150 l 257
 1660 0 l 257
 1659 0 l 258
 1557 0 1476 16 1406 56 c 257
 1390 -330 1071 -504 730 -504 c 256
 394 -504 104 -318 104 30 c 256
 104 220 182 426 258 572 c 257
EndSplineSet
EndChar

StartChar: uniE041
Encoding: 57409 57409 364
Width: 547
VWidth: 0
GlyphClass: 2
Flags: HW
LayerCount: 2
Fore
SplineSet
370 776 m 257
 413 647 439 519 439 407 c 256
 439 171 323 0 0 0 c 256
 -42 0 -75 33 -75 75 c 256
 -75 117 -42 150 0 150 c 256
 223 150 295 257 295 407 c 256
 295 503 265 616 229 728 c 257
 370 776 l 257
EndSplineSet
EndChar

StartChar: uniE042
Encoding: 57410 57410 365
Width: 767
VWidth: 0
GlyphClass: 2
Flags: HW
LayerCount: 2
Fore
SplineSet
0 150 m 256
 133 150 211 179 256 243 c 256
 296 300 309 385 309 502 c 258
 309 606 l 257
 459 606 l 257
 459 502 l 258
 459 391 470 308 506 252 c 256
 549 182 628 150 766 150 c 258
 767 150 l 257
 767 0 l 257
 766 0 l 257
 584 0 456 57 384 181 c 257
 312 57 182 0 0 0 c 256
 -42 0 -75 33 -75 75 c 256
 -75 117 -42 150 0 150 c 256
EndSplineSet
EndChar

StartChar: uniE043
Encoding: 57411 57411 366
Width: 1453
VWidth: 0
GlyphClass: 2
Flags: HW
LayerCount: 2
Fore
SplineSet
1453 150 m 257
 1453 0 l 257
 1252 0 l 257
 1318 -41 1347 -112 1347 -183 c 256
 1347 -417 1116 -583 738 -583 c 256
 359 -583 115 -401 115 -35 c 256
 115 195 183 381 265 560 c 257
 400 490 l 257
 326 324 263 158 263 -46 c 256
 263 -314 422 -433 734 -433 c 256
 1100 -433 1197 -281 1197 -199 c 256
 1197 -83 1068 0 717 0 c 257
 717 150 l 257
 1453 150 l 257
EndSplineSet
EndChar

StartChar: uniE044
Encoding: 57412 57412 367
Width: 596
VWidth: 0
GlyphClass: 2
Flags: HW
LayerCount: 2
Fore
SplineSet
175 1228 m 257
 325 1228 l 257
 325 391 l 258
 325 306 337 248 370 210 c 256
 410 165 480 150 595 150 c 257
 596 150 l 257
 596 0 l 257
 595 0 l 257
 449 0 340 36 269 108 c 256
 207 172 175 266 175 391 c 258
 175 1228 l 257
EndSplineSet
EndChar

StartChar: uniE045
Encoding: 57413 57413 368
Width: 1398
VWidth: 0
GlyphClass: 2
Flags: HW
LayerCount: 2
Fore
SplineSet
1226 -471 m 257
 1282 -610 l 257
 1128 -671 971 -713 758 -713 c 256
 426 -713 101 -590 101 -227 c 256
 101 206 558 390 1030 526 c 257
 605 686 l 258
 567 698 534 702 507 702 c 256
 384 702 323 615 301 425 c 257
 151 442 l 257
 176 668 276 852 507 852 c 256
 553 852 602 846 654 827 c 258
 1246 602 l 257
 1246 435 l 257
 1174 416 1104 396 1037 376 c 257
 1116 258 1209 150 1397 150 c 258
 1398 150 l 257
 1398 0 l 257
 1397 0 l 258
 1139 0 992 155 887 328 c 257
 512 200 251 40 251 -227 c 256
 251 -467 471 -562 764 -562 c 256
 948 -562 1087 -525 1226 -471 c 257
EndSplineSet
EndChar

StartChar: uniE046
Encoding: 57414 57414 369
Width: 1316
VWidth: 0
GlyphClass: 2
Flags: HW
LayerCount: 2
Fore
SplineSet
101 442 m 257
 131 625 209 851 436 851 c 256
 496 851 561 834 631 801 c 258
 1182 554 l 257
 1182 396 l 257
 800 134 480 0 0 0 c 256
 -41 0 -75 34 -75 75 c 256
 -75 116 -41 150 0 150 c 256
 413 150 702 249 1004 467 c 257
 565 666 l 258
 510 691 469 701 436 701 c 256
 341 701 279 604 249 418 c 257
 101 442 l 257
EndSplineSet
EndChar

StartChar: uniE047
Encoding: 57415 57415 370
Width: 1316
VWidth: 0
GlyphClass: 2
Flags: HW
LayerCount: 2
Fore
SplineSet
101 442 m 257
 131 625 209 851 436 851 c 256
 496 851 561 834 631 801 c 258
 1182 554 l 257
 1182 396 l 257
 1126 358 1072 320 1018 288 c 257
 1085 211 1164 150 1315 150 c 258
 1316 150 l 257
 1316 0 l 257
 1315 0 l 258
 1112 0 982 92 885 214 c 257
 617 71 351 0 0 0 c 256
 -41 0 -75 34 -75 75 c 256
 -75 116 -41 150 0 150 c 256
 413 150 702 249 1004 467 c 257
 565 666 l 258
 510 691 469 701 436 701 c 256
 341 701 279 604 249 418 c 257
 101 442 l 257
EndSplineSet
EndChar

StartChar: uniE048
Encoding: 57416 57416 371
Width: 1180
VWidth: 0
GlyphClass: 2
Flags: HW
LayerCount: 2
Fore
SplineSet
1180 150 m 257
 1180 0 l 257
 1179 0 l 257
 1019 0 895 36 795 184 c 257
 727 56 578 0 429 0 c 256
 297 0 164 33 60 111 c 257
 139 238 l 257
 223 175 327 150 429 150 c 256
 589 150 690 226 690 335 c 256
 690 364 683 399 664 443 c 258
 494 844 l 257
 632 904 l 257
 838 419 l 258
 942 174 1000 150 1179 150 c 257
 1180 150 l 257
EndSplineSet
EndChar

StartChar: uniE049
Encoding: 57417 57417 372
Width: 960
VWidth: 0
GlyphClass: 2
Flags: HW
LayerCount: 2
Fore
SplineSet
482 554 m 257
 621 610 l 257
 709 320 l 258
 750 189 807 150 959 150 c 257
 960 150 l 257
 960 0 l 257
 959 0 l 258
 860 0 786 21 724 63 c 257
 705 -203 480 -406 164 -522 c 257
 113 -380 l 257
 412 -271 581 -106 581 130 c 256
 581 228 561 339 482 554 c 257
EndSplineSet
EndChar

StartChar: uniE04A
Encoding: 57418 57418 373
Width: 2614
VWidth: 0
GlyphClass: 2
Flags: HW
LayerCount: 2
Fore
SplineSet
2235 692 m 257
 2276 485 l 258
 2324 245 2345 150 2613 150 c 257
 2614 150 l 257
 2614 0 l 257
 2613 0 l 257
 2404 0 2294 68 2228 174 c 257
 2186 74 2104 0 1963 0 c 256
 1869 0 1767 41 1708 131 c 257
 1654 49 1577 0 1473 0 c 256
 1418 0 1362 12 1308 55 c 257
 1292 -324 1018 -504 684 -504 c 256
 369 -504 103 -339 103 18 c 256
 103 169 167 389 260 556 c 257
 390 488 l 257
 304 330 253 132 253 18 c 256
 253 -222 407 -354 684 -354 c 256
 985 -354 1165 -197 1165 76 c 256
 1165 197 1119 339 1028 564 c 257
 1169 618 l 257
 1312 210 1345 150 1472 150 c 256
 1562 150 1625 207 1643 359 c 258
 1669 582 l 257
 1812 568 l 257
 1793 379 l 258
 1791 362 1792 345 1792 329 c 256
 1792 192 1877 150 1962 150 c 256
 2083 150 2127 234 2127 376 c 256
 2127 426 2122 480 2112 536 c 258
 2088 662 l 257
 2235 692 l 257
EndSplineSet
EndChar

StartChar: uniE04B
Encoding: 57419 57419 374
Width: 1538
VWidth: 0
GlyphClass: 2
Flags: HW
LayerCount: 2
Fore
SplineSet
1392 689 m 257
 1419 563 1435 478 1435 342 c 256
 1435 258 1412 180 1370 121 c 256
 1317 47 1234 0 1128 0 c 256
 1014 0 929 60 880 141 c 257
 831 60 746 0 632 0 c 256
 506 0 418 72 370 165 c 257
 301 57 182 0 0 0 c 256
 -42 0 -75 33 -75 75 c 256
 -75 117 -42 150 0 150 c 256
 127 150 202 175 247 231 c 256
 291 287 309 379 309 516 c 258
 309 606 l 257
 459 606 l 257
 459 434 l 258
 459 338 478 256 514 208 c 256
 541 170 579 150 633 150 c 256
 687 150 725 170 752 208 c 256
 788 256 808 338 808 434 c 258
 808 596 l 257
 952 596 l 257
 952 434 l 258
 952 338 972 257 1008 209 c 256
 1035 171 1072 150 1127 150 c 256
 1191 150 1234 178 1258 224 c 256
 1276 256 1285 296 1285 342 c 256
 1285 468 1270 548 1246 658 c 257
 1392 689 l 257
EndSplineSet
EndChar

StartChar: uniE04C
Encoding: 57420 57420 375
Width: 1735
VWidth: 0
GlyphClass: 2
Flags: HW
LayerCount: 2
Fore
SplineSet
1392 689 m 257
 1424 456 l 258
 1440 350 1465 266 1514 218 c 256
 1557 174 1624 150 1734 150 c 257
 1735 150 l 257
 1735 0 l 257
 1734 0 l 257
 1576 0 1457 48 1382 149 c 257
 1334 61 1247 0 1128 0 c 256
 1014 0 929 61 880 142 c 257
 831 60 746 0 632 0 c 256
 506 0 418 72 370 165 c 257
 301 57 182 0 0 0 c 256
 -42 0 -75 33 -75 75 c 256
 -75 117 -42 150 0 150 c 256
 126 150 201 176 246 230 c 256
 291 286 309 377 309 516 c 258
 309 606 l 257
 459 606 l 257
 459 434 l 258
 459 340 478 257 514 208 c 256
 541 171 578 150 633 150 c 256
 692 150 733 175 760 216 c 256
 796 271 808 352 808 434 c 258
 808 596 l 257
 952 596 l 257
 952 434 l 258
 952 354 964 275 998 220 c 256
 1025 177 1067 150 1127 150 c 256
 1185 150 1227 174 1252 212 c 256
 1274 246 1284 291 1284 342 c 256
 1284 417 1271 519 1244 666 c 257
 1392 689 l 257
EndSplineSet
EndChar

StartChar: uniE04D
Encoding: 57421 57421 376
Width: 2416
VWidth: 0
GlyphClass: 2
Flags: HW
LayerCount: 2
Fore
SplineSet
1292 272 m 257
 1455 572 1674 698 1864 698 c 256
 2055 698 2218 570 2218 366 c 256
 2218 311 2204 264 2182 223 c 257
 2218 180 2281 150 2415 150 c 257
 2416 150 l 257
 2416 0 l 257
 2415 0 l 257
 2259 0 2151 38 2081 110 c 257
 1973 32 1816 -1 1671 -1 c 256
 1550 -1 1418 26 1312 68 c 257
 1295 -320 1027 -504 684 -504 c 256
 369 -504 103 -339 103 18 c 256
 103 169 167 389 260 556 c 257
 390 488 l 257
 304 330 253 132 253 18 c 256
 253 -222 407 -354 684 -354 c 256
 985 -354 1165 -197 1165 76 c 256
 1165 197 1119 339 1028 564 c 257
 1169 618 l 257
 1220 505 1260 389 1292 272 c 257
1416 189 m 257
 1494 163 1584 149 1671 149 c 256
 1913 149 2068 239 2068 366 c 256
 2068 475 1988 548 1864 548 c 256
 1736 548 1562 464 1416 189 c 257
EndSplineSet
EndChar

StartChar: uniE04E
Encoding: 57422 57422 377
Width: 1612
VWidth: 0
GlyphClass: 2
Flags: HW
LayerCount: 2
Fore
SplineSet
0 150 m 256
 123 150 191 177 231 218 c 256
 279 266 307 356 309 501 c 258
 309 606 l 257
 459 606 l 257
 459 402 l 258
 459 321 481 275 519 243 c 257
 709 599 957 739 1157 739 c 256
 1322 739 1487 630 1487 433 c 256
 1487 145 1100 0 829 0 c 256
 621 0 455 28 371 158 c 257
 297 48 169 0 0 0 c 256
 -42 0 -75 33 -75 75 c 256
 -75 117 -42 150 0 150 c 256
643 166 m 257
 692 154 755 150 829 150 c 256
 1104 150 1337 290 1337 428 c 256
 1337 528 1259 589 1152 589 c 256
 1021 589 815 492 643 166 c 257
EndSplineSet
EndChar

StartChar: uniE04F
Encoding: 57423 57423 378
Width: 1635
VWidth: 0
GlyphClass: 2
Flags: HW
LayerCount: 2
Fore
SplineSet
643 165 m 257
 692 153 755 149 829 149 c 256
 1104 149 1337 290 1337 428 c 256
 1337 528 1259 589 1152 589 c 256
 1021 589 815 491 643 165 c 257
459 606 m 257
 459 400 l 258
 459 320 480 275 518 243 c 257
 708 599 957 739 1157 739 c 256
 1322 739 1487 630 1487 433 c 256
 1487 353 1456 283 1404 225 c 257
 1447 173 1516 150 1634 150 c 257
 1635 150 l 257
 1635 0 l 257
 1634 0 l 257
 1482 0 1363 39 1287 126 c 257
 1154 42 977 0 829 0 c 256
 621 0 454 27 370 157 c 257
 295 48 170 0 0 0 c 256
 -41 0 -75 34 -75 75 c 256
 -75 116 -41 150 0 150 c 256
 126 150 200 179 243 230 c 256
 291 288 309 385 309 516 c 258
 309 606 l 257
 459 606 l 257
EndSplineSet
EndChar

StartChar: uniE050
Encoding: 57424 57424 379
Width: 1538
VWidth: 0
GlyphClass: 2
Flags: HW
LayerCount: 2
Fore
SplineSet
564 151 m 257
 1172 162 1240 284 1240 425 c 256
 1240 525 1164 589 1055 589 c 256
 929 589 690 460 564 151 c 257
403 150 m 257
 403 1228 l 257
 553 1228 l 257
 553 405 l 257
 704 624 912 739 1060 739 c 256
 1225 739 1390 630 1390 433 c 256
 1390 349 1370 276 1318 214 c 257
 1356 170 1435 150 1537 150 c 257
 1538 150 l 257
 1538 0 l 257
 1537 0 l 257
 1387 0 1280 33 1199 115 c 257
 1060 39 833 0 478 0 c 258
 92 0 l 257
 92 150 l 257
 403 150 l 257
EndSplineSet
EndChar

StartChar: uniE051
Encoding: 57425 57425 380
Width: 1317
VWidth: 0
GlyphClass: 2
Flags: HW
LayerCount: 2
Fore
SplineSet
344 151 m 257
 952 162 1020 284 1020 425 c 256
 1020 525 944 589 835 589 c 256
 709 589 470 460 344 151 c 257
0 150 m 258
 183 150 l 257
 183 1228 l 257
 333 1228 l 257
 333 405 l 257
 484 624 692 739 840 739 c 256
 1005 739 1170 630 1170 433 c 256
 1170 155 950 0 258 0 c 258
 0 0 l 258
 -42 0 -75 33 -75 75 c 256
 -75 117 -42 150 0 150 c 258
EndSplineSet
EndChar

StartChar: uniE052
Encoding: 57426 57426 381
Width: 1318
VWidth: 0
GlyphClass: 2
Flags: HW
LayerCount: 2
Fore
SplineSet
344 151 m 257
 952 162 1020 284 1020 425 c 256
 1020 525 944 589 835 589 c 256
 709 589 470 460 344 151 c 257
0 150 m 258
 183 151 l 257
 183 1228 l 257
 333 1228 l 257
 333 405 l 257
 484 624 690 739 840 739 c 256
 1005 739 1170 630 1170 433 c 256
 1170 349 1150 276 1098 214 c 257
 1138 169 1215 150 1317 150 c 257
 1318 150 l 257
 1318 0 l 257
 1317 0 l 257
 1167 0 1059 33 979 115 c 257
 840 39 613 0 258 0 c 258
 0 0 l 258
 -42 0 -75 33 -75 75 c 256
 -75 117 -42 150 0 150 c 258
EndSplineSet
EndChar

StartChar: uniE053
Encoding: 57427 57427 382
Width: 1144
VWidth: 0
GlyphClass: 2
Flags: HW
LayerCount: 2
Fore
SplineSet
994 488 m 256
 994 356 900 268 804 203 c 257
 902 170 1011 150 1143 150 c 257
 1144 150 l 257
 1144 0 l 257
 1143 0 l 257
 943 0 778 35 638 102 c 257
 436 16 240 -111 240 -302 c 256
 240 -467 451 -591 721 -591 c 256
 835 -591 952 -568 1048 -528 c 257
 1100 -668 l 257
 980 -716 845 -740 717 -740 c 256
 394 -740 90 -588 90 -305 c 256
 90 -51 302 103 488 195 c 257
 358 280 249 386 154 492 c 257
 160 634 l 257
 264 718 420 776 594 776 c 256
 786 776 994 678 994 488 c 256
844 480 m 256
 844 555 741 626 600 626 c 256
 495 626 380 594 320 554 c 257
 318 532 l 257
 410 434 515 337 643 267 c 257
 767 327 844 400 844 480 c 256
EndSplineSet
EndChar

StartChar: uniE054
Encoding: 57428 57428 383
Width: 1083
VWidth: 0
GlyphClass: 2
Flags: HW
LayerCount: 2
Fore
SplineSet
278 410 m 256
 278 289 395 222 551 222 c 256
 574 222 598 222 618 226 c 258
 910 282 l 257
 937 134 l 257
 452 42 l 258
 310 15 161 0 0 0 c 256
 -42 0 -75 34 -75 75 c 256
 -75 116 -42 150 0 150 c 256
 94 150 183 156 269 168 c 257
 187 219 128 299 128 410 c 256
 128 665 315 842 527 842 c 256
 691 842 805 760 874 674 c 257
 758 577 l 257
 712 636 640 692 527 692 c 256
 398 692 278 586 278 410 c 256
EndSplineSet
EndChar

StartChar: uniE055
Encoding: 57429 57429 384
Width: 1026
VWidth: 0
GlyphClass: 2
Flags: HW
LayerCount: 2
Fore
SplineSet
96 590 m 257
 190 707 367 775 549 775 c 256
 723 775 934 681 934 460 c 256
 934 345 865 243 767 184 c 257
 841 162 929 150 1025 150 c 257
 1026 150 l 257
 1026 0 l 257
 1025 0 l 257
 863 0 721 31 597 86 c 257
 433 26 206 0 0 0 c 256
 -42 0 -75 33 -75 75 c 256
 -75 117 -42 150 0 150 c 256
 143 150 309 164 419 190 c 257
 299 260 189 364 96 456 c 257
 96 590 l 257
256 534 m 257
 256 507 l 257
 363 409 470 314 602 251 c 257
 720 303 784 381 784 456 c 256
 784 561 688 625 549 625 c 256
 438 625 316 586 256 534 c 257
EndSplineSet
EndChar

StartChar: uniE056
Encoding: 57430 57430 385
Width: 1748
VWidth: 0
GlyphClass: 2
Flags: HW
LayerCount: 2
Fore
SplineSet
1290 1247 m 257
 1440 1247 l 257
 1440 517 l 258
 1440 364 1458 261 1532 204 c 256
 1578 168 1647 150 1747 150 c 258
 1748 150 l 257
 1748 0 l 257
 1747 0 l 257
 1639 0 1543 22 1469 70 c 256
 1425 99 1390 136 1364 186 c 257
 1347 160 1326 138 1302 119 c 256
 1206 29 1045 0 799 0 c 256
 477 0 103 38 103 392 c 256
 103 477 120 575 138 652 c 257
 284 616 l 257
 268 549 253 457 253 392 c 256
 253 196 455 150 812 150 c 256
 1040 150 1163 165 1227 236 c 256
 1276 291 1290 379 1290 517 c 258
 1290 1247 l 257
EndSplineSet
EndChar

StartChar: uniE057
Encoding: 57431 57431 386
Width: 999
VWidth: 0
GlyphClass: 2
Flags: HW
LayerCount: 2
Fore
SplineSet
0 150 m 258
 121 150 l 258
 380 150 468 215 468 352 c 256
 468 496 250 701 21 866 c 257
 21 1032 l 257
 257 1186 563 1310 846 1371 c 257
 878 1224 l 257
 646 1173 386 1076 184 956 c 257
 184 930 l 257
 408 763 620 559 620 344 c 256
 620 80 379 0 123 0 c 258
 0 0 l 258
 -42 0 -75 33 -75 75 c 257
 -75 117 -42 150 0 150 c 258
EndSplineSet
EndChar

StartChar: uniE058
Encoding: 57432 57432 387
Width: 1020
VWidth: 0
GlyphClass: 2
Flags: HW
LayerCount: 2
Fore
SplineSet
0 150 m 258
 121 150 l 258
 380 150 468 215 468 352 c 256
 468 496 250 701 21 866 c 257
 21 1032 l 257
 257 1186 563 1310 846 1371 c 257
 878 1224 l 257
 646 1173 386 1076 184 956 c 257
 184 930 l 257
 448 742 562 565 644 408 c 256
 731 241 795 150 1019 150 c 258
 1020 150 l 257
 1020 0 l 257
 1019 0 l 258
 794 0 672 91 586 229 c 257
 531 68 368 0 123 0 c 258
 0 0 l 258
 -42 0 -75 33 -75 75 c 257
 -75 117 -42 150 0 150 c 258
EndSplineSet
EndChar

StartChar: uniE059
Encoding: 57433 57433 388
Width: 1439
VWidth: 0
GlyphClass: 2
Flags: HW
LayerCount: 2
Fore
SplineSet
1439 150 m 257
 1439 0 l 257
 1438 0 l 257
 1306 0 1202 30 1131 102 c 257
 1131 28 l 258
 1131 -314 927 -504 602 -504 c 256
 303 -504 103 -332 103 -46 c 256
 103 70 132 205 193 354 c 257
 328 296 l 257
 276 161 252 42 252 -52 c 256
 252 -245 376 -354 618 -354 c 256
 862 -354 982 -240 982 45 c 258
 982 1228 l 257
 1132 1228 l 257
 1132 516 l 258
 1132 374 1155 282 1196 231 c 256
 1236 181 1302 150 1438 150 c 257
 1439 150 l 257
EndSplineSet
EndChar

StartChar: uniE05A
Encoding: 57434 57434 389
Width: 596
VWidth: 0
GlyphClass: 2
Flags: HW
LayerCount: 2
Fore
SplineSet
421 391 m 258
 421 266 389 172 327 108 c 256
 256 36 147 0 0 0 c 256
 -41 0 -75 34 -75 75 c 256
 -75 116 -41 150 0 150 c 256
 116 150 186 165 226 210 c 256
 259 248 271 306 271 391 c 258
 271 1228 l 257
 421 1228 l 257
 421 391 l 258
EndSplineSet
EndChar

StartChar: uniE05B
Encoding: 57435 57435 390
Width: 692
VWidth: 0
GlyphClass: 2
Flags: HW
LayerCount: 2
Fore
SplineSet
0 150 m 256
 116 150 180 177 217 224 c 256
 257 276 271 360 271 474 c 258
 271 1228 l 257
 421 1228 l 257
 421 474 l 258
 421 363 434 281 472 229 c 256
 508 179 572 150 691 150 c 257
 692 150 l 257
 692 0 l 257
 691 0 l 257
 531 0 413 48 346 156 c 257
 278 48 161 0 0 0 c 256
 -42 0 -75 33 -75 75 c 256
 -75 117 -42 150 0 150 c 256
EndSplineSet
EndChar

StartChar: uniE05C
Encoding: 57436 57436 391
Width: 1329
VWidth: 0
GlyphClass: 2
Flags: HW
LayerCount: 2
Fore
SplineSet
523 213 m 257
 607 189 701 150 793 150 c 256
 886 150 944 183 944 301 c 256
 944 444 863 545 760 545 c 256
 616 545 541 383 523 213 c 257
1329 0 m 257
 1328 0 l 257
 1212 0 1120 33 1038 117 c 257
 983 34 888 0 793 0 c 256
 693 0 590 27 513 58 c 256
 472 74 445 84 401 84 c 256
 316 84 253 22 253 -100 c 258
 253 -785 l 257
 103 -785 l 257
 103 -100 l 258
 103 70 206 217 374 231 c 257
 395 415 486 695 760 695 c 256
 956 695 1071 528 1091 357 c 256
 1109 201 1183 150 1328 150 c 257
 1329 150 l 257
 1329 0 l 257
EndSplineSet
EndChar

StartChar: uniE05D
Encoding: 57437 57437 392
Width: 1046
VWidth: 0
GlyphClass: 2
Flags: HW
LayerCount: 2
Fore
SplineSet
0 150 m 256
 111 150 152 189 206 302 c 256
 221 334 237 372 252 414 c 256
 309 571 419 715 605 715 c 256
 821 715 943 498 943 321 c 256
 943 149 812 0 626 0 c 256
 476 0 385 79 300 167 c 257
 234 64 140 0 0 0 c 256
 -42 0 -75 33 -75 75 c 256
 -75 117 -42 150 0 150 c 256
372 310 m 257
 428 231 519 150 626 150 c 256
 715 150 793 220 793 321 c 256
 793 447 703 565 605 565 c 256
 512 565 441 497 392 362 c 257
 372 310 l 257
EndSplineSet
EndChar

StartChar: uniE05E
Encoding: 57438 57438 393
Width: 1238
VWidth: 0
GlyphClass: 2
Flags: HW
LayerCount: 2
Fore
SplineSet
0 150 m 256
 111 150 152 189 206 302 c 256
 221 334 237 372 252 414 c 256
 309 571 419 715 605 715 c 256
 803 715 923 532 941 366 c 256
 951 307 969 262 994 231 c 256
 1034 181 1101 150 1237 150 c 257
 1238 150 l 257
 1238 0 l 257
 1237 0 l 257
 1080 0 960 40 884 136 c 257
 833 54 732 0 628 0 c 256
 477 0 385 79 300 167 c 257
 234 64 140 0 0 0 c 256
 -42 0 -75 33 -75 75 c 256
 -75 117 -42 150 0 150 c 256
372 310 m 257
 428 231 520 150 628 150 c 256
 716 150 793 220 793 321 c 256
 793 447 703 565 605 565 c 256
 512 565 441 497 392 362 c 257
 372 310 l 257
EndSplineSet
EndChar

StartChar: uniE05F
Encoding: 57439 57439 394
Width: 1041
VWidth: 0
GlyphClass: 2
Flags: HW
LayerCount: 2
Fore
SplineSet
604 688 m 257
 389 654 255 556 255 450 c 256
 255 356 331 304 477 304 c 256
 516 304 583 315 627 328 c 257
 604 688 l 257
1041 0 m 257
 1040 0 l 257
 847 0 738 56 669 182 c 257
 611 166 529 154 477 154 c 256
 307 154 105 231 105 446 c 256
 105 680 357 800 595 840 c 257
 587 973 l 257
 737 982 l 257
 770 428 l 258
 781 240 830 150 1040 150 c 257
 1041 150 l 257
 1041 0 l 257
EndSplineSet
EndChar

StartChar: uniE060
Encoding: 57440 57440 395
Width: 1293
VWidth: 0
GlyphClass: 2
Flags: HW
LayerCount: 2
Fore
SplineSet
0 150 m 256
 106 150 204 159 287 179 c 257
 195 245 122 339 122 460 c 256
 122 591 211 712 315 764 c 257
 153 823 l 257
 212 966 l 257
 664 792 l 258
 935 688 1190 564 1190 309 c 256
 1190 140 1074 0 854 0 c 256
 761 0 597 26 473 72 c 257
 340 22 177 0 0 0 c 256
 -42 0 -75 33 -75 75 c 256
 -75 117 -42 150 0 150 c 256
475 233 m 257
 579 281 646 370 646 480 c 256
 646 590 607 680 499 680 c 256
 404 680 272 598 272 460 c 256
 272 364 357 287 475 233 c 257
636 183 m 257
 721 161 803 150 856 150 c 256
 990 150 1040 214 1040 309 c 256
 1040 423 931 517 759 593 c 257
 811 425 750 272 636 183 c 257
EndSplineSet
EndChar

StartChar: uniE061
Encoding: 57441 57441 396
Width: 986
VWidth: 0
GlyphClass: 2
Flags: HW
LayerCount: 2
Fore
SplineSet
305 174 m 257
 559 216 681 313 681 450 c 256
 681 568 630 616 544 616 c 256
 414 616 315 477 305 174 c 257
986 0 m 257
 985 0 l 257
 836 0 768 -46 768 -174 c 258
 768 -421 l 257
 640 -503 l 257
 394 -479 215 -266 169 5 c 257
 115 1 60 0 0 0 c 257
 -41 0 -75 34 -75 75 c 256
 -75 116 -41 150 0 150 c 257
 56 150 109 151 159 155 c 257
 166 485 274 766 544 766 c 256
 713 766 825 653 825 463 c 256
 825 228 596 65 314 22 c 257
 346 -173 484 -327 616 -347 c 257
 630 -338 l 257
 630 -174 l 258
 630 28 791 150 985 150 c 257
 986 150 l 257
 986 0 l 257
EndSplineSet
EndChar

StartChar: uniE062
Encoding: 57442 57442 397
Width: 928
VWidth: 0
GlyphClass: 2
Flags: HW
LayerCount: 2
Fore
SplineSet
815 0 m 257
 767 -264 537 -421 163 -518 c 257
 119 -376 l 257
 447 -293 616 -162 656 0 c 257
 488 0 l 258
 309 0 137 82 137 303 c 256
 137 500 267 725 470 725 c 256
 764 725 817 334 824 150 c 257
 928 150 l 257
 928 0 l 257
 815 0 l 257
673 150 m 257
 663 354 602 576 470 576 c 256
 383 576 287 456 287 304 c 256
 287 190 348 150 488 150 c 258
 673 150 l 257
EndSplineSet
EndChar

StartChar: uniE063
Encoding: 57443 57443 398
Width: 1033
VWidth: 0
GlyphClass: 2
Flags: HW
LayerCount: 2
Fore
SplineSet
660 526 m 257
 556 392 435 283 329 202 c 257
 328 184 l 257
 378 163 458 147 524 147 c 256
 670 147 760 181 760 254 c 256
 760 307 724 411 660 526 c 257
656 771 m 257
 736 916 785 1038 785 1228 c 257
 935 1228 l 257
 935 978 862 822 750 644 c 257
 837 501 898 365 898 252 c 256
 898 34 666 -1 530 -1 c 256
 390 -1 258 42 165 100 c 257
 165 256 l 257
 300 356 445 475 570 646 c 257
 440 839 261 982 98 1094 c 257
 184 1218 l 257
 354 1101 522 958 656 771 c 257
EndSplineSet
EndChar

StartChar: uniE064
Encoding: 57444 57444 399
Width: 1372
VWidth: 0
GlyphClass: 2
Flags: HW
LayerCount: 2
Fore
SplineSet
474 380 m 257
 324 374 l 257
 324 678 269 908 147 1190 c 257
 285 1248 l 257
 415 946 474 696 474 380 c 257
1372 0 m 257
 1371 0 l 257
 1171 0 1032 70 966 220 c 257
 828 49 549 0 100 0 c 257
 100 150 l 257
 752 150 913 238 913 515 c 258
 913 1228 l 257
 1063 1228 l 257
 1063 517 l 258
 1063 376 1087 284 1128 232 c 256
 1168 182 1235 150 1371 150 c 257
 1372 150 l 257
 1372 0 l 257
EndSplineSet
EndChar

StartChar: uniE065
Encoding: 57445 57445 400
Width: 1873
VWidth: 0
GlyphClass: 2
Flags: HW
LayerCount: 2
Fore
SplineSet
1679 588 m 257
 1654 498 1628 394 1628 318 c 256
 1628 215 1666 150 1872 150 c 258
 1873 150 l 257
 1873 0 l 257
 1872 0 l 257
 1649 0 1527 84 1493 224 c 257
 1316 50 1091 2 750 2 c 256
 367 2 102 120 102 426 c 256
 102 513 127 624 168 726 c 257
 306 671 l 257
 274 587 253 490 253 427 c 256
 253 234 406 152 762 152 c 256
 1333 152 1468 294 1534 624 c 257
 1679 588 l 257
EndSplineSet
EndChar

StartChar: uniE066
Encoding: 57446 57446 401
Width: 921
VWidth: 0
GlyphClass: 2
Flags: HW
LayerCount: 2
Fore
SplineSet
668 390 m 257
 606 373 542 362 472 362 c 256
 288 362 130 444 130 660 c 256
 130 857 260 1082 463 1082 c 256
 783 1082 818 627 818 455 c 256
 818 47 568 0 0 0 c 256
 -42 0 -75 33 -75 75 c 256
 -75 117 -42 150 0 150 c 256
 528 150 657 178 668 390 c 257
664 535 m 257
 650 737 587 932 463 932 c 256
 376 932 280 812 280 660 c 256
 280 546 341 506 481 506 c 256
 549 506 606 517 664 535 c 257
EndSplineSet
EndChar

StartChar: uniE067
Encoding: 57447 57447 402
Width: 1876
VWidth: 0
GlyphClass: 2
Flags: HW
LayerCount: 2
Fore
SplineSet
1417 67 m 257
 1269 17 1091 0 891 0 c 256
 503 0 104 43 104 404 c 256
 104 524 139 630 170 719 c 257
 312 672 l 257
 283 585 256 495 256 412 c 256
 256 206 471 150 891 150 c 256
 1019 150 1137 158 1235 178 c 257
 1144 252 1087 355 1087 488 c 256
 1087 706 1230 839 1422 839 c 256
 1611 839 1757 706 1757 488 c 256
 1757 353 1700 249 1604 176 c 257
 1686 159 1778 150 1875 150 c 257
 1876 150 l 257
 1876 0 l 257
 1875 0 l 257
 1709 0 1548 19 1417 67 c 257
1419 228 m 257
 1539 280 1607 357 1607 488 c 256
 1607 621 1534 689 1422 689 c 256
 1307 689 1237 622 1237 488 c 256
 1237 359 1307 280 1419 228 c 257
EndSplineSet
EndChar

StartChar: uniE068
Encoding: 57448 57448 403
Width: 908
VWidth: 0
GlyphClass: 2
Flags: HW
LayerCount: 2
Fore
SplineSet
0 150 m 256
 97 150 190 158 271 175 c 257
 177 249 119 353 119 488 c 256
 119 706 262 839 454 839 c 256
 643 839 789 706 789 488 c 256
 789 353 729 248 637 175 c 257
 718 158 810 150 907 150 c 257
 908 150 l 257
 908 0 l 257
 907 0 l 257
 743 0 584 20 454 66 c 257
 323 20 164 0 0 0 c 256
 -42 0 -75 33 -75 75 c 256
 -75 117 -42 150 0 150 c 256
454 226 m 257
 568 278 639 358 639 488 c 256
 639 621 566 689 454 689 c 256
 339 689 269 622 269 488 c 256
 269 358 339 278 454 226 c 257
EndSplineSet
EndChar

StartChar: uniE069
Encoding: 57449 57449 404
Width: 1415
VWidth: 0
GlyphClass: 2
Flags: HW
LayerCount: 2
Fore
SplineSet
1157 0 m 257
 975 0 l 258
 796 0 624 82 624 303 c 256
 624 500 754 725 957 725 c 256
 1246 725 1304 352 1311 150 c 257
 1415 150 l 257
 1415 0 l 257
 1306 0 l 257
 1265 -335 1007 -504 684 -504 c 256
 369 -504 103 -339 103 18 c 256
 103 141 147 298 211 444 c 257
 344 383 l 257
 285 249 253 109 253 18 c 256
 253 -222 407 -354 684 -354 c 256
 954 -354 1127 -228 1157 0 c 257
1159 150 m 257
 1151 363 1085 576 957 576 c 256
 870 576 774 456 774 304 c 256
 774 190 835 150 975 150 c 258
 1159 150 l 257
EndSplineSet
EndChar

StartChar: uniFD3E
Encoding: 64830 64830 433
Width: 598
VWidth: 0
GlyphClass: 2
Flags: HW
LayerCount: 2
Fore
SplineSet
468 29 m 257
 342 -52 l 257
 204 164 125 407 125 705 c 256
 125 1003 204 1245 342 1461 c 257
 468 1380 l 257
 344 1187 275 978 275 705 c 256
 275 432 344 222 468 29 c 257
EndSplineSet
EndChar

StartChar: uniFD3F
Encoding: 64831 64831 434
Width: 598
VWidth: 0
GlyphClass: 2
Flags: HW
LayerCount: 2
Fore
SplineSet
130 1380 m 257
 256 1461 l 257
 394 1245 473 1002 473 704 c 256
 473 406 394 164 256 -52 c 257
 130 29 l 257
 254 222 323 431 323 704 c 256
 323 977 254 1187 130 1380 c 257
EndSplineSet
EndChar

StartChar: v
Encoding: 118 118 532
Width: 1037
VWidth: 0
GlyphClass: 2
Flags: HW
LayerCount: 2
Fore
SplineSet
856 1042 m 257
 1015 1042 l 257
 599 0 l 257
 441 0 l 257
 22 1042 l 257
 181 1042 l 257
 519 192 l 257
 856 1042 l 257
EndSplineSet
EndChar

StartChar: w
Encoding: 119 119 533
Width: 1520
VWidth: 0
GlyphClass: 2
Flags: HW
LayerCount: 2
Fore
SplineSet
1304 1042 m 257
 1460 1042 l 257
 1152 0 l 257
 988 0 l 257
 760 811 l 257
 533 0 l 257
 370 0 l 257
 60 1042 l 257
 216 1042 l 257
 450 220 l 257
 682 1042 l 257
 838 1042 l 257
 1070 220 l 257
 1304 1042 l 257
EndSplineSet
EndChar

StartChar: x
Encoding: 120 120 534
Width: 1160
VWidth: 0
GlyphClass: 2
Flags: HW
LayerCount: 2
Fore
SplineSet
936 1042 m 257
 1120 1042 l 257
 672 506 l 257
 1096 0 l 257
 911 0 l 257
 581 408 l 257
 250 0 l 257
 64 0 l 257
 488 506 l 257
 40 1042 l 257
 224 1042 l 257
 581 604 l 257
 936 1042 l 257
EndSplineSet
EndChar

StartChar: y
Encoding: 121 121 535
Width: 1036
VWidth: 0
GlyphClass: 2
Flags: HW
LayerCount: 2
Fore
SplineSet
856 1042 m 257
 1014 1042 l 257
 617 43 l 258
 532 -174 435 -410 135 -410 c 258
 69 -410 l 257
 69 -278 l 257
 135 -278 l 258
 297 -278 369 -173 449 20 c 257
 437 20 l 257
 22 1042 l 257
 182 1042 l 257
 522 195 l 257
 856 1042 l 257
EndSplineSet
EndChar

StartChar: z
Encoding: 122 122 539
Width: 991
VWidth: 0
GlyphClass: 2
Flags: HW
LayerCount: 2
Fore
SplineSet
72 915 m 257
 72 1042 l 257
 918 1042 l 257
 918 912 l 257
 240 128 l 257
 918 128 l 257
 918 0 l 257
 72 0 l 257
 72 132 l 257
 750 915 l 257
 72 915 l 257
EndSplineSet
EndChar

StartChar: zero
Encoding: 48 48 540
Width: 1206
VWidth: 0
GlyphClass: 2
Flags: HW
LayerCount: 2
Fore
SplineSet
604 -37 m 256
 190 -37 119 426 119 705 c 256
 119 984 190 1446 604 1446 c 256
 1018 1446 1088 984 1088 705 c 256
 1088 426 1018 -37 604 -37 c 256
604 91 m 256
 854 91 938 408 938 705 c 256
 938 1002 854 1319 604 1319 c 256
 354 1319 269 1002 269 705 c 256
 269 408 354 91 604 91 c 256
EndSplineSet
EndChar
